<svg width="64" height="46" viewBox="0 0 64 46" fill="none" xmlns="http://www.w3.org/2000/svg">
<path d="M1.24951 28.9446C4.84951 25.3446 7.08285 25.1112 7.74951 25.4446C10.9495 26.2448 10.4162 28.4445 9.74951 29.4443C4.14951 31.8443 1.74951 30.1112 1.24951 28.9446Z" fill="#222222"/>
<path d="M62.2495 28.9446C58.6495 25.3446 56.4162 25.1112 55.7495 25.4446C52.5495 26.2448 53.0828 28.4445 53.7495 29.4443C59.3495 31.8443 61.7495 30.1112 62.2495 28.9446Z" fill="#222222"/>
<path d="M5.10798 24.5705C6.24796 24.0831 7.3478 23.9305 8.16462 24.2628C9.98486 24.746 11.0967 25.7342 11.4156 27.0822C11.6716 28.1643 11.3375 29.1859 10.9547 29.8673L10.7896 30.1378C10.6888 30.289 10.5566 30.4157 10.4029 30.5099L10.2418 30.5939C4.42637 33.0861 1.02314 31.5878 0.101146 29.4367C-0.100078 28.9669 0.00442299 28.4221 0.365795 28.0607C2.24024 26.1863 3.8273 25.118 5.10798 24.5705ZM7.19099 26.5626C7.35253 26.6434 7.06567 26.4529 6.09138 26.8693C5.34712 27.1874 4.3119 27.8196 3.00447 28.9992C3.80498 29.4512 5.51992 29.8108 8.86775 28.4552C8.98582 28.1805 9.03686 27.8851 8.98298 27.6574C8.94423 27.4937 8.7813 27.0466 7.67927 26.7208L7.44587 26.6574C7.35768 26.6353 7.27232 26.6033 7.19099 26.5626Z" fill="#030303"/>
<path d="M58.391 24.5705C57.2511 24.0831 56.1512 23.9305 55.3344 24.2628C53.5142 24.746 52.4023 25.7342 52.0834 27.0822C51.8274 28.1643 52.1615 29.1859 52.5444 29.8673L52.7094 30.1378C52.8102 30.289 52.9424 30.4157 53.0961 30.5099L53.2573 30.5939C59.0727 33.0861 62.4759 31.5878 63.3979 29.4367C63.5991 28.9669 63.4946 28.4221 63.1332 28.0607C61.2588 26.1863 59.6717 25.118 58.391 24.5705ZM56.308 26.5626C56.1465 26.6434 56.4334 26.4529 57.4076 26.8693C58.1519 27.1874 59.1871 27.8196 60.4946 28.9992C59.694 29.4512 57.9791 29.8108 54.6313 28.4552C54.5132 28.1805 54.4622 27.8851 54.516 27.6574C54.5548 27.4937 54.7177 27.0466 55.8198 26.7208L56.0532 26.6574C56.1413 26.6353 56.2267 26.6033 56.308 26.5626Z" fill="#030303"/>
<circle cx="31.7495" cy="23.4443" r="22" fill="#FEE6D3"/>
<path d="M54.7495 23.4642C41.5495 24.6642 33.9162 17.9642 31.7495 14.4642C25.3495 26.0641 15.0828 24.6308 10.7495 22.4642C12.3495 4.8642 26.0828 1.13087 32.7495 1.4642C50.3495 1.4642 54.7495 16.1309 54.7495 23.4642Z" fill="#222222" stroke="#030303" stroke-width="2.5" stroke-linecap="round" stroke-linejoin="round"/>
<circle cx="23.7495" cy="29.4443" r="2" fill="#030303"/>
<circle cx="39.7495" cy="29.4443" r="2" fill="#030303"/>
<path d="M33.4604 32.4746C33.9514 32.0741 34.6756 32.1029 35.1333 32.5605C35.591 33.0182 35.6197 33.7424 35.2192 34.2334L35.1333 34.3281C33.8452 35.6162 32.3981 35.9498 31.1108 35.7402C30.0524 35.5678 29.1717 35.0434 28.5942 34.541L28.3657 34.3281L28.2798 34.2334C27.8793 33.7424 27.9081 33.0182 28.3657 32.5605C28.8234 32.1029 29.5476 32.0741 30.0386 32.4746L30.1333 32.5605L30.2476 32.666C30.5399 32.9173 31.0039 33.1905 31.5132 33.2734C32.0175 33.3554 32.654 33.2723 33.3657 32.5605L33.4604 32.4746Z" fill="#030303"/>
<circle cx="9.74951" cy="24.4443" r="3" fill="#EA4444"/>
<circle cx="3" cy="3" r="3" transform="matrix(-1 0 0 1 56.7495 21.4443)" fill="#EA4444"/>
<circle cx="9.74951" cy="28.4443" r="3" fill="#EA4444"/>
<circle cx="3" cy="3" r="3" transform="matrix(-1 0 0 1 56.7495 25.4443)" fill="#EA4444"/>
</svg>
