<svg width="61" height="46" viewBox="0 0 61 46" fill="none" xmlns="http://www.w3.org/2000/svg">
<path d="M2.1748 36.1362C5.1748 33.6362 8.6748 25.3029 9.6748 20.6362L53.1748 21.6362C53.9748 26.8362 57.5081 33.4696 59.1748 36.1362H2.1748Z" fill="#222222" stroke="#030303" stroke-width="2.5" stroke-linecap="round" stroke-linejoin="round"/>
<circle cx="31.6748" cy="23.6362" r="22" fill="#FEE6D3"/>
<path d="M53.6748 22.6363H9.67481C7.67481 2.23649 24.5081 0.136381 33.1748 1.6363C50.3748 -0.363699 54.0081 14.803 53.6748 22.6363Z" fill="#222222" stroke="#030303" stroke-width="2.5" stroke-linecap="round" stroke-linejoin="round"/>
<circle cx="23.6748" cy="29.6362" r="2" fill="#030303"/>
<circle cx="39.6748" cy="29.6362" r="2" fill="#030303"/>
<path d="M33.3857 32.6665C33.8767 32.266 34.6009 32.2948 35.0586 32.7524C35.5163 33.2101 35.545 33.9343 35.1445 34.4253L35.0586 34.52C33.7705 35.8081 32.3234 36.1417 31.0361 35.9321C29.9777 35.7597 29.097 35.2353 28.5195 34.7329L28.291 34.52L28.2051 34.4253C27.8046 33.9343 27.8334 33.2101 28.291 32.7524C28.7487 32.2948 29.4729 32.266 29.9639 32.6665L30.0586 32.7524L30.1729 32.8579C30.4652 33.1092 30.9292 33.3824 31.4385 33.4653C31.9428 33.5473 32.5793 33.4642 33.291 32.7524L33.3857 32.6665Z" fill="#030303"/>
<path d="M10.1079 14.7624L13.5533 17.0648L17.6954 17.1854L16.5704 21.1736L17.7356 25.1503L13.595 25.3127L10.1731 27.6498L8.739 23.762L5.45887 21.2298L8.71324 18.6645L10.1079 14.7624Z" fill="#FFDE3D" stroke="#030303" stroke-width="2.5" stroke-linejoin="round"/>
</svg>
