<svg width="173" height="144" viewBox="0 0 173 144" fill="none" xmlns="http://www.w3.org/2000/svg">
<g id="&#236;&#149;&#153;&#234;&#184;&#136;&#236;&#131;&#157;&#236;&#132;&#177;-&#236;&#130;&#172;&#235;&#158;&#140;">
<path id="Vector 8" d="M81.9426 64.7278C78.3923 66.8581 61.5279 68.5741 53.5396 69.1658C47.4995 69.7001 41.5551 68.7968 39.338 68.2783C32.9473 67.5683 26.6158 69.7577 24.2489 70.9411C5.07684 83.0124 1.46729 97.8648 2.05902 103.782L5.6094 141.949L170.702 121.534C170.702 87.4504 164.193 71.237 160.939 67.3907L126.322 70.9411L127.21 86.9178C125.08 76.9768 115.08 67.9824 110.346 64.7278C99.6946 58.3372 86.9724 62.0651 81.9426 64.7278Z" fill="#1A49FF"/>
<path id="Vector 8 (Stroke)" d="M93.8751 59.5508C99.108 59.0766 105.138 59.7089 110.727 62.879L111.266 63.1944L111.359 63.254C113.845 64.963 117.645 68.1264 121.109 72.1475C122.43 73.6806 123.72 75.3616 124.875 77.1534L124.536 71.0401C124.483 70.0863 125.189 69.2588 126.14 69.1612L160.756 65.6114L160.976 65.6026C161.485 65.6131 161.971 65.841 162.305 66.2354C164.215 68.4935 166.733 73.8536 168.784 82.7208C170.854 91.6705 172.491 104.383 172.491 121.534C172.491 122.437 171.818 123.199 170.922 123.31L5.82916 143.724C5.34909 143.783 4.86526 143.646 4.48834 143.343C4.11137 143.04 3.87299 142.596 3.82818 142.114L0.279351 103.96L0.251031 103.64C-0.261325 96.7743 3.95788 81.6037 23.296 69.4278L23.4493 69.3409C25.9337 68.0988 32.2831 65.8851 38.8946 66.4385L39.5352 66.5001L39.7452 66.5362C41.8218 67.0218 47.5718 67.8978 53.3819 67.3839L53.4073 67.3819C57.3761 67.0879 63.5515 66.5141 69.1641 65.751C71.9726 65.3692 74.6146 64.9439 76.7579 64.4874C78.9895 64.012 80.4257 63.5525 81.0225 63.1944L81.1055 63.1465C83.8199 61.7095 88.487 60.0393 93.8751 59.5508ZM109.374 66.2315C104.475 63.3101 99.0598 62.6736 94.1973 63.1143C89.3139 63.5571 85.1112 65.0764 82.793 66.3008C81.6064 66.9885 79.6394 67.5313 77.503 67.9864C75.2361 68.4692 72.4964 68.9085 69.6465 69.296C63.9424 70.0714 57.6914 70.6525 53.6719 70.9503L53.671 70.9493C47.5185 71.4895 41.4976 70.6013 39.0567 70.0479C33.2069 69.4231 27.3394 71.4176 25.1221 72.5059C7.07723 83.9014 3.53982 97.5934 3.80181 103.097L3.83892 103.605L3.8399 103.616L7.21978 139.947L168.908 119.953C168.811 103.825 167.233 91.8947 165.298 83.5264C163.529 75.8763 161.492 71.3437 160.111 69.2735L128.202 72.546L128.996 86.8184C129.048 87.7509 128.374 88.5661 127.448 88.6905C126.523 88.8146 125.657 88.2062 125.461 87.293C124.485 82.7403 121.666 78.2758 118.399 74.4835C115.168 70.7322 111.624 67.7848 109.374 66.2315Z" fill="#030303"/>
<g id="Group 5">
<path id="Vector 11" d="M121.884 48.752C116.204 55.8528 124.251 67.6874 128.985 72.7171L158.276 71.8293C159.696 67.5688 158.868 56.4443 158.276 51.4146L132.536 54.965C137.506 54.2549 136.974 50.5271 136.086 48.752C133.956 41.6512 125.731 45.7933 121.884 48.752Z" fill="#FEE3D3"/>
<path id="Vector 11 (Stroke)" d="M129.304 43.2209C130.924 42.9216 132.706 42.9403 134.308 43.7394C135.927 44.5473 137.098 46.0203 137.752 48.091C138.241 49.1281 138.679 50.7298 138.325 52.3595L158.031 49.6427L158.21 49.6271C158.626 49.6117 159.038 49.742 159.37 49.9992C159.75 50.2932 159.997 50.728 160.053 51.2052C160.354 53.7627 160.713 57.8567 160.818 61.8634C160.871 63.8667 160.861 65.8724 160.743 67.6662C160.628 69.4301 160.402 71.1081 159.973 72.3947C159.736 73.1063 159.08 73.5946 158.33 73.6173L129.039 74.505C128.527 74.5204 128.034 74.3154 127.683 73.9425C125.218 71.3238 121.881 66.9335 119.882 62.2082C117.915 57.5609 117.009 51.9816 120.487 47.6339L120.632 47.4748C120.683 47.4247 120.737 47.3778 120.794 47.3341C122.818 45.7769 126.101 43.8124 129.304 43.2209ZM132.711 46.9406C132.052 46.6117 131.137 46.52 129.954 46.7384C127.628 47.1681 124.974 48.6679 123.154 50.0343C121.091 52.7766 121.392 56.5961 123.177 60.8136C124.826 64.7122 127.556 68.4542 129.751 70.9035L156.868 70.0812C157.002 69.3517 157.105 68.4613 157.173 67.4328C157.281 65.7853 157.293 63.8962 157.242 61.9572C157.163 58.9244 156.93 55.8272 156.693 53.4386L132.791 56.7345L132.788 56.7355L132.787 56.7345L132.78 56.7365C131.803 56.8712 130.901 56.1905 130.764 55.214C130.627 54.2375 131.306 53.3342 132.282 53.1945C134.27 52.9106 134.671 52.1498 134.796 51.7384C134.991 51.0973 134.817 50.2138 134.486 49.5519C134.44 49.46 134.402 49.3642 134.372 49.2658C133.952 47.864 133.314 47.2416 132.711 46.9406Z" fill="#030303"/>
<path id="Vector 12" d="M121.885 26.5617C120.465 30.1121 123.66 41.0591 125.435 46.0888C128.986 42.5386 133.423 44.6096 135.198 46.0888C135.198 43.2487 134.607 41.3551 134.311 40.7633C128.63 20.8811 123.66 23.0113 121.885 26.5617Z" fill="#FEE3D3"/>
<path id="Vector 12 (Stroke)" d="M122.999 22.8762C124.453 22.174 126.102 22.3295 127.653 23.4055C129.096 24.4069 130.471 26.1997 131.817 28.8459C133.167 31.4999 134.565 35.1692 135.99 40.132C136.431 41.1192 136.987 43.2238 136.987 46.0891C136.987 46.783 136.586 47.4148 135.958 47.7092C135.329 48.0036 134.586 47.9074 134.053 47.4631C133.363 46.8875 132.107 46.1745 130.724 45.9728C129.427 45.7838 128.021 46.0325 126.7 47.3537C126.265 47.788 125.639 47.969 125.04 47.8332C124.44 47.6973 123.953 47.2631 123.749 46.6838C122.844 44.1196 121.578 40.0544 120.715 36.1574C120.284 34.2109 119.944 32.2634 119.807 30.5451C119.676 28.899 119.706 27.1934 120.224 25.8976L120.285 25.7619C120.819 24.6928 121.697 23.5047 122.999 22.8762ZM125.614 26.3449C124.99 25.9122 124.708 26.0234 124.554 26.0978C124.259 26.2405 123.869 26.6263 123.525 27.2853C123.348 27.7848 123.254 28.7611 123.374 30.2619C123.492 31.7518 123.796 33.5214 124.209 35.384C124.81 38.0998 125.623 40.9226 126.356 43.2082C127.992 42.3665 129.696 42.2075 131.241 42.4328C131.894 42.5281 132.519 42.6916 133.102 42.8976C132.947 42.1579 132.78 41.7011 132.71 41.5627C132.661 41.464 132.621 41.3611 132.59 41.2551C131.188 36.3479 129.85 32.8706 128.627 30.468C127.389 28.0333 126.345 26.8525 125.614 26.3449Z" fill="#030303"/>
<path id="Rectangle 14" d="M149.4 44.3136C149.4 41.3724 151.784 38.988 154.725 38.988C157.667 38.988 160.051 41.3724 160.051 44.3136V49.6392C160.051 52.5804 157.667 54.9648 154.725 54.9648C151.784 54.9648 149.4 52.5804 149.4 49.6392V44.3136Z" fill="#FEE3D3"/>
<path id="Rectangle 14 (Stroke)" d="M156.473 49.6395V44.3133C156.473 43.3481 155.69 42.5662 154.725 42.5662C153.76 42.5664 152.978 43.3482 152.978 44.3133V49.6395C152.978 50.6046 153.76 51.3874 154.725 51.3876V54.9648L154.452 54.9579C151.728 54.82 149.545 52.6364 149.407 49.913L149.4 49.6395V44.3133C149.4 41.3723 151.784 38.9882 154.725 38.988L154.999 38.9949C157.813 39.1375 160.051 41.4641 160.051 44.3133V49.6395L160.044 49.913C159.902 52.727 157.574 54.9648 154.725 54.9648V51.3876C155.69 51.3876 156.473 50.6048 156.473 49.6395Z" fill="#030303"/>
<path id="Rectangle 15" d="M140.524 42.5382C140.524 39.597 142.908 37.2126 145.85 37.2126C148.791 37.2126 151.175 39.597 151.175 42.5382V49.639C151.175 52.5802 148.791 54.9646 145.85 54.9646C142.908 54.9646 140.524 52.5802 140.524 49.639V42.5382Z" fill="#FEE3D3"/>
<path id="Rectangle 15 (Stroke)" d="M147.597 49.6394V42.5378C147.597 41.5727 146.814 40.7908 145.849 40.7908C144.884 40.791 144.102 41.5728 144.102 42.5378V49.6394C144.102 50.6044 144.884 51.3862 145.849 51.3864V54.9646L145.576 54.9577C142.852 54.8198 140.669 52.6361 140.531 49.9128L140.524 49.6394V42.5378C140.524 39.5969 142.908 37.2129 145.849 37.2126L146.123 37.2195C148.937 37.3621 151.175 39.6887 151.175 42.5378V49.6394L151.168 49.9128C151.026 52.7268 148.698 54.9646 145.849 54.9646V51.3864C146.814 51.3864 147.597 50.6045 147.597 49.6394Z" fill="#030303"/>
<path id="Rectangle 16" d="M133.423 44.3136C133.423 41.3724 135.807 38.988 138.749 38.988C141.69 38.988 144.074 41.3724 144.074 44.3136V51.4144C144.074 54.3556 141.69 56.74 138.749 56.74C135.807 56.74 133.423 54.3556 133.423 51.4144V44.3136Z" fill="#FEE3D3"/>
<path id="Rectangle 16 (Stroke)" d="M140.496 51.4148V44.3132C140.496 43.3481 139.713 42.5662 138.748 42.5662C137.783 42.5664 137.001 43.3482 137.001 44.3132V51.4148C137.001 52.3798 137.783 53.1616 138.748 53.1618V56.74L138.475 56.7331C135.752 56.5952 133.568 54.4115 133.43 51.6882L133.423 51.4148V44.3132C133.423 41.3723 135.807 38.9882 138.748 38.988L139.023 38.9949C141.836 39.1375 144.074 41.4641 144.074 44.3132V51.4148L144.067 51.6882C143.925 54.5022 141.598 56.74 138.748 56.74V53.1618C139.713 53.1618 140.496 52.3799 140.496 51.4148Z" fill="#030303"/>
</g>
<g id="Group 7">
<path id="Vector 9" d="M55.3145 33.6621C70.9362 29.4016 74.8416 19.4606 74.8416 15.0226C81.2321 15.0226 87.5639 23.3069 89.9309 27.449C91.3511 18.9281 88.1557 13.8392 86.3805 12.3598C79.9898 -3.97197 60.0484 2.59624 50.8765 7.92181C32.4145 12.8923 30.1659 30.7034 31.3494 38.9877C35.6099 58.1597 48.5096 62.361 54.4269 62.0652V36.3249L55.3145 33.6621Z" fill="#030303"/>
<path id="Vector 9 (Stroke)" d="M69.6028 0.231529C73.2864 0.0900037 77.0115 0.661497 80.2874 2.45907C83.4957 4.21963 86.1437 7.08792 87.886 11.3116C90.182 13.5214 93.1284 19.1463 91.6956 27.7432C91.5712 28.4894 90.9909 29.0767 90.2463 29.21C89.5018 29.3432 88.7536 28.9936 88.3782 28.337C87.2611 26.3822 85.1847 23.4179 82.6516 20.9688C80.6048 18.9898 78.4657 17.5471 76.4407 17.0255C75.4659 22.564 70.459 31.0657 56.7131 35.1222L56.2161 36.6153V62.0655C56.2159 63.0186 55.4678 63.804 54.5159 63.8516C47.7348 64.1905 34.054 59.4061 29.6028 39.3761C29.5929 39.3314 29.5849 39.2856 29.5784 39.2403C28.9482 34.8285 29.2288 27.9552 32.1116 21.4845C35.0047 14.9907 40.5167 8.93137 50.1848 6.2579C54.9287 3.53994 62.383 0.508915 69.6028 0.231529ZM78.5667 5.59579C76.0196 4.1981 72.9874 3.68202 69.7405 3.80672C63.2041 4.05785 56.2144 6.89095 51.7747 9.46883C51.6389 9.54763 51.4936 9.60867 51.342 9.6495C42.6891 11.9791 37.9084 17.2657 35.3801 22.9405C32.8335 28.6567 32.5704 34.7938 33.1116 38.67C36.7904 55.1076 46.9646 59.6664 52.6379 60.2266V36.3253C52.6379 36.133 52.6689 35.9413 52.7297 35.7589L53.6174 33.0968L53.7004 32.8897C53.9232 32.4242 54.3392 32.0743 54.844 31.9366C69.7894 27.8606 73.053 18.5527 73.053 15.0225C73.0531 14.0346 73.8541 13.2335 74.842 13.2335C78.7611 13.2337 82.3791 15.7282 85.1389 18.3966C86.3611 19.5782 87.4795 20.8582 88.4573 22.1065C88.1633 17.2783 86.1685 14.5121 85.2356 13.7345C85.004 13.5415 84.825 13.2925 84.7151 13.0118C83.2578 9.28768 81.0817 6.976 78.5667 5.59579Z" fill="#030303"/>
<g id="Group 6">
<path id="Vector 10" d="M90.8185 44.3132L89.9309 23.8985L75.7293 15.9102C74.3091 25.8512 62.1195 32.4786 56.2022 34.5497L55.3146 36.3249H52.6518C45.551 35.6148 44.3676 39.5794 44.6635 41.6504C43.9534 47.3311 50.2849 48.7512 53.5394 48.7512L54.427 72.7163L77.5045 70.9411L78.3921 60.29C88.3332 57.4496 90.8185 48.4553 90.8185 44.3132Z" fill="#FEE3D3"/>
<path id="Vector 10 (Stroke)" d="M74.9376 14.3057C75.4671 14.0446 76.092 14.0613 76.6066 14.3507L90.8077 22.3399L91.0011 22.4649C91.4284 22.7838 91.6944 23.2808 91.7179 23.8214L92.6056 44.2354C92.6067 44.2613 92.6075 44.2877 92.6075 44.3136C92.6074 48.7388 90.0781 58.1332 80.0753 61.63L79.2872 71.0899C79.2142 71.9648 78.5171 72.6574 77.6417 72.7247L54.5646 74.5001C54.0792 74.5374 53.5997 74.3749 53.2364 74.0509C52.8732 73.7268 52.6578 73.2687 52.6398 72.7823L51.8116 50.4347C50.2197 50.2503 48.3583 49.7983 46.7404 48.8917C45.5913 48.2478 44.4949 47.3349 43.7491 46.0587C43.0234 44.8165 42.6975 43.3414 42.8644 41.6612C42.7223 40.2212 43.0738 38.2451 44.6114 36.6876C46.2545 35.0236 48.9125 34.1754 52.7238 34.5362H54.2091L54.6027 33.7501L54.6876 33.5987C54.9023 33.2568 55.2272 32.9959 55.6114 32.8614C58.4129 31.8809 62.7546 29.7956 66.5372 26.7823C70.3465 23.7477 73.3416 19.9729 73.9581 15.6573L74.003 15.4425C74.1363 14.9505 74.4744 14.5344 74.9376 14.3057ZM76.9357 18.6417C75.5335 23.126 72.2625 26.7952 68.7667 29.5802C64.9162 32.6476 60.5782 34.8178 57.4835 35.9854L56.9152 37.1251C56.6121 37.7311 55.9921 38.1134 55.3146 38.1134H52.6515C52.5922 38.1134 52.5328 38.1105 52.4738 38.1046C49.242 37.7814 47.7922 38.5584 47.1573 39.2013C46.4902 39.877 46.3466 40.7808 46.4347 41.3975C46.4572 41.5549 46.4583 41.7145 46.4386 41.8722C46.3057 42.9356 46.508 43.6891 46.838 44.254C47.1814 44.8417 47.7376 45.3494 48.4894 45.7706C49.9378 46.5821 51.8414 46.919 53.2618 46.9581L53.5392 46.962L53.7179 46.9708C54.5975 47.0579 55.2937 47.7834 55.3273 48.6847L56.1456 70.7891L75.8478 69.2735L76.6095 60.1417L76.6261 60.004C76.736 59.3237 77.2301 58.7621 77.9005 58.5704C86.7689 56.0366 89.0196 48.033 89.0284 44.335L88.1866 24.9698L76.9357 18.6417Z" fill="#030303"/>
<path id="Vector" d="M78.8304 48.1236C77.4101 48.3277 75.8851 48.0912 74.4522 47.0546C74.0345 46.7419 73.9471 46.1332 74.2598 45.7155C74.5725 45.2978 75.1406 45.2162 75.5989 45.5231C78.6562 47.7759 82.1205 44.5031 82.1611 44.4973C82.526 44.1549 83.1464 44.1486 83.4946 44.5542C83.8369 44.9192 83.8432 45.5395 83.4377 45.8877C82.4876 46.7697 80.784 47.8843 78.8362 48.1642L78.8304 48.1236Z" fill="#030303"/>
<path id="Ellipse 12" d="M86.3511 34.1703C86.3511 35.2664 85.4625 36.155 84.3663 36.155C83.2702 36.155 82.3816 35.2664 82.3816 34.1703C82.3816 33.0741 83.2702 32.1855 84.3663 32.1855C85.4625 32.1855 86.3511 33.0741 86.3511 34.1703Z" fill="#030303"/>
<path id="Ellipse 13" d="M69.977 36.1551C69.977 37.2513 69.0884 38.1399 67.9923 38.1399C66.8962 38.1399 66.0076 37.2513 66.0076 36.1551C66.0076 35.059 66.8962 34.1704 67.9923 34.1704C69.0884 34.1704 69.977 35.059 69.977 36.1551Z" fill="#030303"/>
<path id="Ellipse 14" d="M81.3894 41.1171C81.3894 42.2132 80.5008 43.1018 79.4047 43.1018C78.3085 43.1018 77.4199 42.2132 77.4199 41.1171C77.4199 40.0209 78.3085 39.1323 79.4047 39.1323C80.5008 39.1323 81.3894 40.0209 81.3894 41.1171Z" fill="#030303"/>
<path id="Vector 14 (Stroke)" d="M48.6943 40.7228C49.2779 40.6463 50.2154 40.5814 51.2245 40.6212C52.088 40.6553 53.1087 40.7692 54.0302 41.0743L54.4179 41.2169L54.5575 41.2824C55.2284 41.6393 55.5333 42.4531 55.2402 43.172C54.9468 43.8912 54.159 44.2598 53.4296 44.045L53.2851 43.9943L53.0712 43.9171C52.5484 43.7462 51.8537 43.6487 51.1064 43.6193C50.2749 43.5865 49.508 43.6419 49.0849 43.6974C48.2635 43.8051 47.51 43.2258 47.4023 42.4044C47.2947 41.5832 47.8731 40.8306 48.6943 40.7228Z" fill="#030303"/>
<path id="Ellipse 15" d="M70.9695 44.5905C70.9695 46.5087 69.4145 48.0637 67.4962 48.0637C65.578 48.0637 64.0229 46.5087 64.0229 44.5905C64.0229 42.6722 65.578 41.1172 67.4962 41.1172C69.4145 41.1172 70.9695 42.6722 70.9695 44.5905Z" fill="#FECCCC"/>
</g>
</g>
</g>
</svg>
