<svg width="185" height="47" viewBox="0 0 185 47" fill="none" xmlns="http://www.w3.org/2000/svg">
<path d="M1.24951 29.9446C4.84951 26.3446 7.08285 26.1112 7.74951 26.4446C10.9495 27.2448 10.4162 29.4445 9.74951 30.4443C4.14951 32.8443 1.74951 31.1112 1.24951 29.9446Z" fill="#222222"/>
<path d="M62.2495 29.9446C58.6495 26.3446 56.4162 26.1112 55.7495 26.4446C52.5495 27.2448 53.0828 29.4445 53.7495 30.4443C59.3495 32.8443 61.7495 31.1112 62.2495 29.9446Z" fill="#222222"/>
<path d="M5.10798 25.5705C6.24796 25.0831 7.3478 24.9305 8.16462 25.2628C9.98486 25.746 11.0967 26.7342 11.4156 28.0822C11.6716 29.1643 11.3375 30.1859 10.9547 30.8673L10.7896 31.1378C10.6888 31.289 10.5566 31.4157 10.4029 31.5099L10.2418 31.5939C4.42637 34.0861 1.02314 32.5878 0.101146 30.4367C-0.100078 29.9669 0.00442299 29.4221 0.365795 29.0607C2.24024 27.1863 3.8273 26.118 5.10798 25.5705ZM7.19099 27.5626C7.35253 27.6434 7.06567 27.4529 6.09138 27.8693C5.34712 28.1874 4.3119 28.8196 3.00447 29.9992C3.80498 30.4512 5.51992 30.8108 8.86775 29.4552C8.98582 29.1805 9.03686 28.8851 8.98298 28.6574C8.94423 28.4937 8.7813 28.0466 7.67927 27.7208L7.44587 27.6574C7.35768 27.6353 7.27232 27.6033 7.19099 27.5626Z" fill="#030303"/>
<path d="M58.391 25.5705C57.2511 25.0831 56.1512 24.9305 55.3344 25.2628C53.5142 25.746 52.4023 26.7342 52.0834 28.0822C51.8274 29.1643 52.1615 30.1859 52.5444 30.8673L52.7094 31.1378C52.8102 31.289 52.9424 31.4157 53.0961 31.5099L53.2573 31.5939C59.0727 34.0861 62.4759 32.5878 63.3979 30.4367C63.5991 29.9669 63.4946 29.4221 63.1332 29.0607C61.2588 27.1863 59.6717 26.118 58.391 25.5705ZM56.308 27.5626C56.1465 27.6434 56.4334 27.4529 57.4076 27.8693C58.1519 28.1874 59.1871 28.8196 60.4946 29.9992C59.694 30.4512 57.9791 30.8108 54.6313 29.4552C54.5132 29.1805 54.4622 28.8851 54.516 28.6574C54.5548 28.4937 54.7177 28.0466 55.8198 27.7208L56.0532 27.6574C56.1413 27.6353 56.2267 27.6033 56.308 27.5626Z" fill="#030303"/>
<circle cx="31.7495" cy="24.4443" r="22" fill="#FEE6D3"/>
<path d="M54.7495 24.4642C41.5495 25.6642 33.9162 18.9642 31.7495 15.4642C25.3495 27.0641 15.0828 25.6308 10.7495 23.4642C12.3495 5.8642 26.0828 2.13087 32.7495 2.4642C50.3495 2.4642 54.7495 17.1309 54.7495 24.4642Z" fill="#222222" stroke="#030303" stroke-width="2.5" stroke-linecap="round" stroke-linejoin="round"/>
<circle cx="23.7495" cy="30.4443" r="2" fill="#030303"/>
<circle cx="39.7495" cy="30.4443" r="2" fill="#030303"/>
<path d="M33.4604 33.4746C33.9514 33.0741 34.6756 33.1029 35.1333 33.5605C35.591 34.0182 35.6197 34.7424 35.2192 35.2334L35.1333 35.3281C33.8452 36.6162 32.3981 36.9498 31.1108 36.7402C30.0524 36.5678 29.1717 36.0434 28.5942 35.541L28.3657 35.3281L28.2798 35.2334C27.8793 34.7424 27.9081 34.0182 28.3657 33.5605C28.8234 33.1029 29.5476 33.0741 30.0386 33.4746L30.1333 33.5605L30.2476 33.666C30.5399 33.9173 31.0039 34.1905 31.5132 34.2734C32.0175 34.3554 32.654 34.2723 33.3657 33.5605L33.4604 33.4746Z" fill="#030303"/>
<circle cx="9.74951" cy="25.4443" r="3" fill="#EA4444"/>
<circle cx="3" cy="3" r="3" transform="matrix(-1 0 0 1 56.7495 22.4443)" fill="#EA4444"/>
<circle cx="9.74951" cy="29.4443" r="3" fill="#EA4444"/>
<circle cx="3" cy="3" r="3" transform="matrix(-1 0 0 1 56.7495 26.4443)" fill="#EA4444"/>
<circle cx="95.1714" cy="24.8892" r="22" fill="#FEE6D3"/>
<circle cx="87.1714" cy="30.8892" r="2" fill="#030303"/>
<circle cx="103.171" cy="30.8892" r="2" fill="#030303"/>
<path d="M96.8823 33.9194C97.3733 33.5189 98.0975 33.5477 98.5552 34.0054C99.0128 34.463 99.0416 35.1873 98.6411 35.6782L98.5552 35.7729C97.2671 37.061 95.82 37.3946 94.5327 37.1851C93.4743 37.0127 92.5936 36.4882 92.0161 35.9858L91.7876 35.7729L91.7017 35.6782C91.3012 35.1873 91.3299 34.463 91.7876 34.0054C92.2453 33.5477 92.9695 33.5189 93.4604 33.9194L93.5552 34.0054L93.6694 34.1108C93.9617 34.3622 94.4258 34.6354 94.9351 34.7183C95.4394 34.8003 96.0758 34.7171 96.7876 34.0054L96.8823 33.9194Z" fill="#030303"/>
<path d="M117.171 25.8893C99.1714 27.0893 89.0047 20.3893 86.1714 16.8893C80.9714 24.8895 75.0047 24.5559 72.6714 23.3892C71.0714 7.78916 81.0047 3.88927 86.1714 3.88932C111.371 -4.11068 117.338 15.2227 117.171 25.8893Z" fill="#222222" stroke="#030303" stroke-width="2.5" stroke-linecap="round" stroke-linejoin="round"/>
<path d="M126.175 37.1362C129.175 34.6362 132.675 26.3029 133.675 21.6362L177.175 22.6362C177.975 27.8362 181.508 34.4696 183.175 37.1362H126.175Z" fill="#222222" stroke="#030303" stroke-width="2.5" stroke-linecap="round" stroke-linejoin="round"/>
<circle cx="155.675" cy="24.6362" r="22" fill="#FEE6D3"/>
<path d="M177.675 23.6363H133.675C131.675 3.23649 148.508 1.13638 157.175 2.6363C174.375 0.636301 178.008 15.803 177.675 23.6363Z" fill="#222222" stroke="#030303" stroke-width="2.5" stroke-linecap="round" stroke-linejoin="round"/>
<circle cx="147.675" cy="30.6362" r="2" fill="#030303"/>
<circle cx="163.675" cy="30.6362" r="2" fill="#030303"/>
<path d="M157.386 33.6665C157.877 33.266 158.601 33.2948 159.059 33.7524C159.516 34.2101 159.545 34.9343 159.145 35.4253L159.059 35.52C157.771 36.8081 156.323 37.1417 155.036 36.9321C153.978 36.7597 153.097 36.2353 152.52 35.7329L152.291 35.52L152.205 35.4253C151.805 34.9343 151.833 34.2101 152.291 33.7524C152.749 33.2948 153.473 33.266 153.964 33.6665L154.059 33.7524L154.173 33.8579C154.465 34.1092 154.929 34.3824 155.438 34.4653C155.943 34.5473 156.579 34.4642 157.291 33.7524L157.386 33.6665Z" fill="#030303"/>
<path d="M134.108 15.7624L137.553 18.0648L141.695 18.1854L140.57 22.1736L141.736 26.1503L137.595 26.3127L134.173 28.6498L132.739 24.762L129.459 22.2298L132.713 19.6645L134.108 15.7624Z" fill="#FFDE3D" stroke="#030303" stroke-width="2.5" stroke-linejoin="round"/>
</svg>
