<svg width="63" height="72" viewBox="0 0 63 72" fill="none" xmlns="http://www.w3.org/2000/svg">
<path d="M26.0778 5.73394C29.7428 8.33682 33.494 10.9432 37.0275 13.6973C37.0333 13.6868 37.0388 13.6759 37.0445 13.6656C39.5937 15.5413 43.114 18.4467 46.0287 21.5343C57.8674 30.2072 57.6808 45.296 56.2987 51.4771C55.442 54.9051 53.4637 57.5947 51.02 59.6739C50.9954 59.7319 50.9723 59.7907 50.9473 59.8488C50.0456 60.6 48.75 61.4726 47.1257 62.3256C45.2032 63.3781 43.2113 64.1615 41.372 64.717C39.0711 65.604 37.2938 65.8879 35.8896 65.8167C31.9153 66.3158 27.4205 66.158 22.6305 64.8129C10.0574 56.4808 6.15478 44.0624 14.4964 25.3273C16.5553 20.731 21.754 10.3774 26.0778 5.73394Z" fill="white"/>
<path d="M48.6568 57.0731C59.6448 31.4446 42.2707 20.3276 26.6816 9.25635C22.8611 13.3593 18.2675 22.5077 16.4483 26.569C9.07743 43.1237 12.5256 54.0967 23.6353 61.459C35.4553 64.7784 45.2413 59.9181 48.6568 57.0731Z" fill="#FF4400"/>
<path d="M53.3107 49.4284C51.0811 57.8744 40.8227 61.2073 35.9722 61.818C25.5778 59.4983 23.3868 50.9537 23.5907 46.9714C24.2466 49.7284 25.1783 53.5159 23.6574 46.6103C22.1365 39.7048 29.3337 29.3285 33.1224 25.0036C33.9798 23.654 35.5697 18.8471 36.6101 17.0559C38.8436 18.6503 41.1965 20.6992 44.6635 23.59C55.0364 30.9622 54.5732 44.1039 53.3107 49.4284Z" fill="#FF6200" stroke="#FF6200" stroke-width="0.804351"/>
<path d="M39.8031 47.0206C44.4907 52.3135 42.9795 58.4049 41.5467 60.6419C33.6746 64.239 31.8716 60.7075 30.3852 59.4675C20.6622 51.9209 22.8466 41.6558 25.1541 37.4667C32.7008 39.6616 38.0646 44.7505 39.8031 47.0206Z" fill="#FF9500"/>
</svg>
