<svg width="41" height="29" viewBox="0 0 41 29" fill="none" xmlns="http://www.w3.org/2000/svg">
<path d="M23.2635 5.39244L28.7603 9.06566L35.3686 9.25809L33.5738 15.6209L35.4329 21.9653L28.8268 22.2245L23.3675 25.9531L21.0796 19.7505L15.8464 15.7105L21.0385 11.6179L23.2635 5.39244Z" fill="#FFDE3D"/>
<path d="M22.8711 4.20563C23.2368 4.0848 23.6376 4.13957 23.9578 4.35353L29.1559 7.82639L35.4047 8.00839C35.7896 8.0196 36.1476 8.20816 36.3756 8.51855C36.6035 8.82892 36.6762 9.22683 36.5717 9.59743L34.874 15.6138L36.632 21.6143C36.7401 21.9837 36.6718 22.3821 36.4471 22.6947C36.2223 23.0073 35.8661 23.1993 35.4813 23.2144L29.2346 23.4586L24.0727 26.9852C23.7547 27.2024 23.3533 27.2608 22.9865 27.1436C22.62 27.0264 22.3283 26.7469 22.1951 26.3859L20.03 20.52L15.0823 16.7001C14.7775 16.4648 14.5979 16.1021 14.5959 15.7171C14.5939 15.332 14.77 14.967 15.0724 14.7286L19.981 10.8589L22.0866 4.97197L22.1426 4.83932C22.2899 4.54085 22.5513 4.31132 22.8711 4.20563ZM22.2151 12.0387C22.136 12.2598 21.9966 12.4543 21.8122 12.5997L17.8774 15.7001L21.8429 18.7607L21.9742 18.8777C22.0962 19.0028 22.1913 19.1525 22.2522 19.3176L23.9854 24.0169L28.1215 21.1925L28.2733 21.1042C28.43 21.0268 28.602 20.9824 28.7779 20.9755L33.7816 20.7791L32.3738 15.9722L32.3369 15.8013C32.3117 15.6283 32.3228 15.4506 32.3707 15.2811L33.7293 10.4608L28.7238 10.3153C28.4891 10.3085 28.2611 10.2353 28.0659 10.1049L23.9008 7.32112L22.2151 12.0387Z" fill="#030303"/>
<path d="M5 1.75C9.35791 1.75 13.2826 3.89948 14.75 5C15.3023 5.41421 15.4142 6.19772 15 6.75C14.5858 7.30228 13.8023 7.41421 13.25 7C12.0507 6.10052 8.64209 4.25 5 4.25C4.30964 4.25 3.75 3.69036 3.75 3C3.75 2.30964 4.30964 1.75 5 1.75Z" fill="#030303"/>
<path d="M1.45299 8.9703C5.67083 7.87431 10.01 8.96765 11.707 9.66376C12.3457 9.92577 12.6511 10.6559 12.389 11.2946C12.127 11.9333 11.3969 12.2387 10.7582 11.9767C9.37119 11.4078 5.60675 10.474 2.08172 11.3899C1.41356 11.5636 0.731154 11.1627 0.557533 10.4945C0.383912 9.82632 0.78482 9.14392 1.45299 8.9703Z" fill="#030303"/>
<path d="M1.48022 18.0581C4.9793 15.4605 9.41183 14.8469 11.246 14.8559C11.9364 14.8592 12.4932 15.4216 12.4899 16.112C12.4865 16.8023 11.9241 17.3592 11.2338 17.3558C9.73465 17.3485 5.89474 17.8945 2.97042 20.0654C2.41611 20.4769 1.63317 20.3612 1.22166 19.8069C0.810155 19.2526 0.925915 18.4696 1.48022 18.0581Z" fill="#030303"/>
</svg>
