<svg width="48" height="47" viewBox="0 0 48 47" fill="none" xmlns="http://www.w3.org/2000/svg">
<circle cx="24.1714" cy="24.8892" r="22" fill="#FEE6D3"/>
<circle cx="16.1714" cy="30.8892" r="2" fill="#030303"/>
<circle cx="32.1714" cy="30.8892" r="2" fill="#030303"/>
<path d="M25.8823 33.9194C26.3733 33.5189 27.0975 33.5477 27.5552 34.0054C28.0128 34.463 28.0416 35.1873 27.6411 35.6782L27.5552 35.7729C26.2671 37.061 24.82 37.3946 23.5327 37.1851C22.4743 37.0127 21.5936 36.4882 21.0161 35.9858L20.7876 35.7729L20.7017 35.6782C20.3012 35.1873 20.3299 34.463 20.7876 34.0054C21.2453 33.5477 21.9695 33.5189 22.4604 33.9194L22.5552 34.0054L22.6694 34.1108C22.9617 34.3622 23.4258 34.6354 23.9351 34.7183C24.4394 34.8003 25.0758 34.7171 25.7876 34.0054L25.8823 33.9194Z" fill="#030303"/>
<path d="M46.1714 25.8893C28.1714 27.0893 18.0047 20.3893 15.1714 16.8893C9.97138 24.8895 4.00471 24.5559 1.67138 23.3892C0.0713817 7.78916 10.0047 3.88927 15.1714 3.88932C40.3714 -4.11068 46.3381 15.2227 46.1714 25.8893Z" fill="#222222" stroke="#030303" stroke-width="2.5" stroke-linecap="round" stroke-linejoin="round"/>
</svg>
