<svg width="66" height="29" viewBox="0 0 66 29" fill="none" xmlns="http://www.w3.org/2000/svg">
<path d="M29.2613 14.5C29.2613 22.5081 22.7471 29 14.7114 29C6.6758 29 0.161621 22.5081 0.161621 14.5C0.161621 6.49187 6.6758 0 14.7114 0C22.7471 0 29.2613 6.49187 29.2613 14.5Z" fill="#54FFAE"/>
<path d="M45.5745 14.5C45.5745 22.5081 39.0603 29 31.0247 29C22.989 29 16.4749 22.5081 16.4749 14.5C16.4749 6.49187 22.989 0 31.0247 0C39.0603 0 45.5745 6.49187 45.5745 14.5Z" fill="#4A36FF"/>
<path d="M64.6084 14.5C64.6084 22.5081 58.0943 29 50.0586 29C42.023 29 35.5088 22.5081 35.5088 14.5C35.5088 6.49187 42.023 0 50.0586 0C58.0943 0 64.6084 6.49187 64.6084 14.5Z" fill="#FF3596"/>
<path d="M7.78654 12.7593C7.78654 13.5875 7.11203 14.2588 6.27999 14.2588C5.44794 14.2588 4.77344 13.5875 4.77344 12.7593C4.77344 11.9311 5.44794 11.2598 6.27999 11.2598C7.11203 11.2598 7.78654 11.9311 7.78654 12.7593Z" fill="#4A36FF"/>
<path d="M14.2306 12.7593C14.2306 13.5875 13.5561 14.2588 12.7241 14.2588C11.892 14.2588 11.2175 13.5875 11.2175 12.7593C11.2175 11.9311 11.892 11.2598 12.7241 11.2598C13.5561 11.2598 14.2306 11.9311 14.2306 12.7593Z" fill="#4A36FF"/>
<path d="M56.6741 20.3475V9.06934H59.3001V13.3376H59.3626C59.683 12.5743 60.4099 11.7798 61.7698 11.7798C63.5595 11.7798 65.1617 13.1584 65.1617 16.1259C65.1617 18.9922 63.6377 20.4721 61.7542 20.4721C60.4568 20.4721 59.7065 19.7477 59.3626 18.9766H59.2845V20.3475H56.6741ZM59.2532 16.1104C59.2454 17.5123 59.8394 18.4158 60.8632 18.4158C61.887 18.4158 62.4576 17.5046 62.4576 16.1104C62.4576 14.7318 61.887 13.8361 60.8632 13.8361C59.8394 13.8361 59.2454 14.7084 59.2532 16.1104Z" fill="white"/>
<path d="M47.2327 17.9957C47.2249 16.1186 48.6864 15.4488 50.3745 15.3475C50.992 15.3086 52.0471 15.2696 52.4066 15.2541V14.5686C52.4066 13.9767 51.9689 13.6418 51.2499 13.6496C50.5543 13.6418 50.101 13.9533 49.9994 14.5063H47.5453C47.6626 13.0109 48.9287 11.7803 51.3124 11.7803C53.407 11.7803 55.0404 12.7694 55.0482 14.5998V20.3479H52.5629V19.164H52.5004C52.0392 20.0208 51.2186 20.4959 50.0307 20.5037C48.405 20.4959 47.2249 19.6703 47.2327 17.9957ZM49.7337 17.8867C49.7259 18.4552 50.187 18.759 50.8278 18.759C51.7266 18.759 52.43 18.1748 52.4222 17.3414V16.7962C52.1018 16.804 51.2108 16.8508 50.8122 16.8897C50.1479 16.9598 49.7259 17.3259 49.7337 17.8867Z" fill="white"/>
<path d="M45.9353 9.06934V20.3475H43.2937V9.06934H45.9353Z" fill="white"/>
<path d="M29.4604 20.3475V9.06934H34.1341C36.6742 9.06934 37.9794 10.2221 37.9794 11.9356C37.9794 13.2207 37.104 14.1087 35.8692 14.3657V14.4747C37.2291 14.537 38.417 15.5652 38.417 17.2008C38.417 19.0156 37.0024 20.3475 34.4936 20.3475H29.4604ZM32.1177 18.1978H33.8684C35.0798 18.1978 35.6347 17.7071 35.6347 16.9048C35.6347 16.0169 34.9782 15.4483 33.9153 15.4561H32.1177V18.1978ZM32.1177 13.727H33.6965C34.6031 13.7192 35.2596 13.2441 35.2596 12.4341C35.2596 11.6708 34.6734 11.1879 33.7277 11.1879H32.1177V13.727Z" fill="white"/>
<path d="M25.0681 9.06934H27.741V16.344C27.741 18.8676 25.8184 20.4954 22.9735 20.5032C20.1052 20.4954 18.2061 18.8676 18.2061 16.344V9.06934H20.8633V16.1259C20.8633 17.3176 21.7152 18.1822 22.9735 18.1822C24.224 18.1822 25.0759 17.3176 25.0681 16.1259V9.06934Z" fill="white"/>
<path d="M12.1287 15.8506C12.4387 15.5714 12.9173 15.5807 13.2161 15.8784C13.5149 16.1762 13.5242 16.6532 13.2441 16.9621L13.2161 16.9915C11.8772 18.3258 10.397 18.6372 9.09774 18.4322C7.88413 18.2407 6.87045 17.6087 6.26975 17.0575L6.21286 17.0044L6.18419 16.9758C5.89686 16.6735 5.89492 16.1964 6.18655 15.8917C6.47819 15.5871 6.95644 15.5665 7.27296 15.8383L7.30309 15.8655L7.34292 15.9027C7.76475 16.2889 8.50249 16.7446 9.34471 16.8775C10.1676 17.0073 11.134 16.8404 12.0992 15.8784L12.1287 15.8506Z" fill="#4A36FF"/>
</svg>
