<svg width="700" height="314" viewBox="0 0 700 314" fill="none" xmlns="http://www.w3.org/2000/svg">
<path d="M313.208 156.604C313.208 243.094 243.094 313.208 156.604 313.208C70.114 313.208 0 243.094 0 156.604C0 70.114 70.114 0 156.604 0C243.094 0 313.208 70.114 313.208 156.604Z" fill="#54FFAE"/>
<path d="M488.794 156.604C488.794 243.094 418.68 313.208 332.19 313.208C245.7 313.208 175.586 243.094 175.586 156.604C175.586 70.114 245.7 0 332.19 0C418.68 0 488.794 70.114 488.794 156.604Z" fill="#4A36FF"/>
<path d="M693.66 156.604C693.66 243.094 623.546 313.208 537.056 313.208C450.566 313.208 380.452 243.094 380.452 156.604C380.452 70.114 450.566 0 537.056 0C623.546 0 693.66 70.114 693.66 156.604Z" fill="#FF3596"/>
<path d="M82.0705 137.805C82.0705 146.749 74.8106 154 65.8551 154C56.8996 154 49.6396 146.749 49.6396 137.805C49.6396 128.86 56.8996 121.609 65.8551 121.609C74.8106 121.609 82.0705 128.86 82.0705 137.805Z" fill="#4A36FF"/>
<path d="M151.431 137.805C151.431 146.749 144.171 154 135.215 154C126.26 154 119 146.749 119 137.805C119 128.86 126.26 121.609 135.215 121.609C144.171 121.609 151.431 128.86 151.431 137.805Z" fill="#4A36FF"/>
<path d="M608.259 219.759V97.9521H636.523V144.05H637.196C640.645 135.806 648.468 127.226 663.105 127.226C682.369 127.226 699.614 142.116 699.614 174.165C699.614 205.122 683.21 221.105 662.937 221.105C648.973 221.105 640.898 213.282 637.196 204.954H636.355V219.759H608.259ZM636.019 173.997C635.934 189.139 642.328 198.897 653.347 198.897C664.367 198.897 670.508 189.055 670.508 173.997C670.508 159.108 664.367 149.434 653.347 149.434C642.328 149.434 635.934 158.856 636.019 173.997Z" fill="white"/>
<path d="M506.641 194.354C506.557 174.081 522.288 166.847 540.458 165.753C547.103 165.333 558.459 164.912 562.329 164.744V157.341C562.329 150.948 557.618 147.331 549.879 147.415C542.392 147.331 537.513 150.696 536.42 156.668H510.006C511.268 140.517 524.895 127.226 550.552 127.226C573.096 127.226 590.678 137.909 590.762 157.678V219.759H564.011V206.972H563.338C558.375 216.226 549.543 221.357 536.756 221.441C519.259 221.357 506.557 212.44 506.641 194.354ZM533.56 193.177C533.476 199.317 538.439 202.598 545.337 202.598C555.01 202.598 562.581 196.289 562.497 187.288V181.4C559.048 181.484 549.458 181.989 545.168 182.409C538.018 183.166 533.476 187.12 533.56 193.177Z" fill="white"/>
<path d="M492.677 97.9521V219.759H464.244V97.9521H492.677Z" fill="white"/>
<path d="M315.351 219.759V97.9521H365.655C392.994 97.9521 407.042 110.402 407.042 128.909C407.042 142.788 397.621 152.378 384.33 155.154V156.332C398.967 157.005 411.753 168.109 411.753 185.774C411.753 205.374 396.527 219.759 369.524 219.759H315.351ZM343.952 196.542H362.795C375.833 196.542 381.806 191.242 381.806 182.578C381.806 172.988 374.74 166.847 363.299 166.931H343.952V196.542ZM343.952 148.256H360.944C370.702 148.172 377.768 143.041 377.768 134.292C377.768 126.048 371.459 120.833 361.28 120.833H343.952V148.256Z" fill="white"/>
<path d="M268.075 97.9521H296.844V176.521C296.844 203.776 276.15 221.357 245.53 221.441C214.658 221.357 194.217 203.776 194.217 176.521V97.9521H222.818V174.165C222.818 187.036 231.987 196.373 245.53 196.373C258.99 196.373 268.159 187.036 268.075 174.165V97.9521Z" fill="white"/>
<path d="M128.807 171.189C132.143 168.174 137.295 168.274 140.511 171.489C143.726 174.705 143.826 179.857 140.811 183.193L140.511 183.511C126.1 197.921 110.168 201.285 96.1835 199.07C83.121 197.002 72.2105 190.177 65.745 184.224L65.1327 183.65L64.8241 183.341C61.7315 180.076 61.7106 174.924 64.8495 171.633C67.9885 168.342 73.136 168.12 76.5429 171.056L76.8671 171.35L77.2958 171.751C81.8361 175.923 89.7766 180.844 98.8417 182.279C107.699 183.682 118.1 181.879 128.489 171.489L128.807 171.189Z" fill="#4A36FF"/>
</svg>
