<svg width="322" height="245" viewBox="0 0 322 245" fill="none" xmlns="http://www.w3.org/2000/svg">
<path d="M321.042 230.462V233.462H13.5171V230.462H321.042Z" fill="#030303"/>
<path d="M149.076 152.531L156.426 155.261L165.876 158.621L178.685 195.37L175.115 231.489H137.316L141.306 201.88C118.291 210.784 93.7776 188.09 84.3979 175.631L108.127 148.122C111.487 150.138 122.407 159.041 127.447 163.241C131.647 158.369 143.616 154.071 149.076 152.531Z" fill="white"/>
<path d="M107.084 147.043C107.568 146.575 108.312 146.483 108.899 146.835C110.682 147.905 114.338 150.707 118.09 153.688C121.383 156.304 124.832 159.127 127.337 161.203C129.788 158.925 133.524 156.899 137.177 155.267C141.453 153.357 145.881 151.874 148.669 151.087L148.785 151.06C149.056 151.006 149.337 151.029 149.598 151.125L156.948 153.855L166.378 157.207L166.534 157.273C166.887 157.445 167.16 157.752 167.291 158.127L180.102 194.876C180.174 195.082 180.2 195.301 180.178 195.518L176.608 231.636C176.532 232.404 175.887 232.988 175.116 232.989H137.316C136.883 232.989 136.472 232.802 136.187 232.476C135.902 232.15 135.772 231.717 135.829 231.288L139.495 204.083C128.129 207.482 116.661 203.88 106.966 198.052C96.588 191.814 87.9777 182.88 83.1996 176.533C82.7751 175.969 82.8011 175.185 83.2621 174.651L106.992 147.142L107.084 147.043ZM86.3314 175.684C91.0549 181.717 99.0439 189.79 108.511 195.481C118.502 201.486 129.876 204.694 140.765 200.481C141.26 200.29 141.818 200.373 142.235 200.702C142.651 201.03 142.863 201.555 142.792 202.08L139.033 229.989H173.756L177.16 195.551L164.696 159.793L155.923 156.674C155.917 156.672 155.91 156.67 155.904 156.667L149.019 154.11C146.331 154.892 142.293 156.268 138.401 158.006C134.211 159.878 130.446 162.059 128.582 164.22C128.048 164.84 127.116 164.917 126.487 164.393C123.973 162.299 119.993 159.03 116.224 156.037C113.115 153.567 110.219 151.345 108.404 150.096L86.3314 175.684Z" fill="#030303"/>
<path d="M200.279 157.419C206.956 155.936 216.25 151.443 220.062 149.382C241.577 154.576 251.903 171.949 254.376 179.986C275.644 217.081 256.231 235.01 243.866 239.338C233.726 242.553 226.245 235.113 223.772 230.992H174.312C173.57 221.1 176.27 205.437 177.712 198.843L200.279 157.419Z" fill="white"/>
<path d="M219.474 148.002C219.77 147.876 220.1 147.848 220.415 147.924C242.435 153.24 253.081 170.916 255.753 179.373C266.464 198.117 267.074 212.311 263.132 222.492C259.324 232.327 251.383 238.108 244.976 240.53L244.361 240.754C244.347 240.759 244.333 240.764 244.319 240.768C238.778 242.525 233.939 241.36 230.199 239.218C226.884 237.321 224.404 234.644 222.953 232.492H174.312C173.527 232.492 172.875 231.887 172.816 231.104C172.056 220.975 174.802 205.125 176.247 198.522L176.273 198.419C176.303 198.317 176.344 198.218 176.395 198.124L198.961 156.702L199.046 156.564C199.26 156.256 199.584 156.038 199.954 155.956C206.415 154.52 215.555 150.114 219.349 148.063L219.474 148.002ZM220.255 150.978C216.282 153.082 207.797 157.133 201.275 158.726L179.133 199.369C177.752 205.75 175.335 219.904 175.73 229.492H223.772L223.967 229.504C224.418 229.563 224.821 229.825 225.058 230.22C226.183 232.094 228.496 234.787 231.689 236.615C234.835 238.416 238.796 239.362 243.381 237.917C249.239 235.864 256.787 230.57 260.334 221.408C263.864 212.292 263.558 199.017 253.075 180.732C253.019 180.636 252.975 180.533 252.942 180.427C250.597 172.808 240.744 156.173 220.255 150.978Z" fill="#030303"/>
<path d="M148.867 168.281L156.636 154.841L166.086 158.831L179.526 194.74L177.426 199.99L153.696 181.72L161.676 173.321L148.867 168.281Z" fill="white"/>
<path d="M155.414 153.972C155.817 153.404 156.566 153.184 157.219 153.46L166.669 157.449L166.808 157.516C167.121 157.688 167.364 157.968 167.491 158.305L180.93 194.214C181.061 194.564 181.057 194.951 180.918 195.297L178.819 200.547C178.644 200.984 178.275 201.313 177.822 201.437C177.368 201.561 176.883 201.465 176.51 201.178L152.782 182.909C152.445 182.65 152.233 182.26 152.201 181.836C152.168 181.413 152.316 180.995 152.609 180.687L159.055 173.901L148.318 169.676C147.911 169.516 147.595 169.187 147.451 168.775C147.307 168.363 147.349 167.908 147.568 167.53L155.337 154.09L155.414 153.972ZM151.037 167.523L162.225 171.925C162.689 172.108 163.033 172.51 163.141 172.997C163.249 173.484 163.107 173.992 162.763 174.354L155.929 181.546L176.769 197.591L177.916 194.722L164.907 159.961L157.272 156.738L151.037 167.523Z" fill="#030303"/>
<path d="M181.473 43.001C186.53 43.001 191.443 43.5862 196.141 44.6904L197.841 44.2686L197.914 45.1348C223.295 51.8819 242.003 73.8653 242.491 100.084C248.665 95.8972 258.947 92.8709 263.268 106.342C263.966 117.391 259.151 137.039 234.75 129.508C224.306 147.265 204.361 159.267 181.473 159.268C147.768 159.268 120.444 133.24 120.444 101.134C120.444 92.9393 122.224 85.1411 125.436 78.0703C126.091 72.3733 126.959 65.7853 127.514 61.7568L139.743 58.7158C150.657 48.9697 165.333 43.001 181.473 43.001Z" fill="#FEE6D3"/>
<path d="M182.441 41.5078C187.145 41.5759 191.724 42.1408 196.125 43.1484L197.48 42.8125L197.641 42.7822C198.018 42.7314 198.403 42.8257 198.715 43.0498C199.023 43.2704 199.233 43.5976 199.309 43.9639C223.941 50.9434 242.274 72.0319 243.884 97.4844C246.779 95.9139 250.278 94.7405 253.73 95.0996C255.973 95.3331 258.165 96.2126 260.086 97.9922C261.873 99.6472 263.363 102.022 264.478 105.23L264.697 105.884L264.742 106.063C264.753 106.124 264.761 106.185 264.765 106.247C265.125 111.952 264.089 120.055 259.605 125.814C257.333 128.732 254.185 131.032 249.958 132.075C246.006 133.05 241.211 132.904 235.436 131.274C224.741 148.655 205.094 160.389 182.569 160.759L181.473 160.768C147.009 160.768 118.944 134.136 118.944 101.134C118.944 92.8039 120.737 84.8713 123.972 77.6689C124.626 72.0105 125.479 65.5327 126.028 61.5518L126.048 61.4395C126.168 60.884 126.594 60.4396 127.152 60.3008L139.025 57.3477C150.18 47.5076 165.097 41.501 181.473 41.501L182.441 41.5078ZM121.944 101.134C121.944 132.344 148.527 157.768 181.473 157.768L182.519 157.759C204.438 157.4 223.443 145.774 233.458 128.747L233.528 128.639C233.9 128.115 234.57 127.882 235.193 128.074C241.111 129.901 245.701 130.036 249.239 129.163C252.755 128.295 255.343 126.406 257.238 123.972C261.042 119.086 262.083 111.951 261.781 106.625C260.764 103.53 259.451 101.493 258.047 100.192C256.633 98.8819 255.059 98.2536 253.419 98.083C250.054 97.7329 246.303 99.3107 243.333 101.325C242.877 101.634 242.289 101.669 241.8 101.416C241.312 101.163 241.001 100.662 240.991 100.112C240.524 75.0195 222.885 53.8461 198.685 46.9043L197.528 46.584C197.216 46.5009 196.948 46.3226 196.752 46.084L196.502 46.1465C196.271 46.2038 196.03 46.2048 195.798 46.1504C191.499 45.1399 187.013 44.5746 182.398 44.5078L181.473 44.501C165.707 44.501 151.385 50.3307 140.742 59.835C140.56 59.9972 140.341 60.113 140.105 60.1719L128.864 62.9668C128.386 66.4721 127.736 71.4206 127.18 76.0762L126.926 78.2412C126.908 78.3964 126.866 78.5482 126.801 78.6904C123.676 85.5717 121.944 93.1591 121.944 101.134Z" fill="#030303"/>
<path d="M158.576 74.6665C171.661 77.8652 188.706 67.0097 195.734 59.74C207.385 90.1953 222.733 75.8688 227.464 70.3982C227.184 85.3473 236.215 98.2182 240.36 102.235C244.441 97.2053 253.683 97.2926 258.2 98.5151C273.12 63.4476 251.983 41.2665 239.55 34.5593C252.634 30.8541 252.045 25.5857 250.116 23.4147C246.063 15.0779 238.971 20.5199 235.931 24.2831C236.279 17.6831 234.05 14.8754 232.892 14.2965C224.555 10.707 224.32 21.1964 225.245 26.8897C211.127 18.5306 191.963 15.8215 184.146 15.5119C123.774 15.5119 98.5677 56.1543 120.466 70.3982C134.397 79.4594 148.109 65.7772 154.765 59.74C150.121 66.4274 155.752 73.5203 158.576 74.6665Z" fill="#222222"/>
<path d="M227.399 12.5974C229.004 11.8255 230.916 11.908 233.055 12.7419L233.485 12.9187L233.562 12.9548L233.753 13.0583C234.705 13.6141 235.669 14.7742 236.363 16.4606C236.825 17.5827 237.186 18.9781 237.357 20.6813C238.763 19.4822 240.437 18.4017 242.217 17.8737C243.807 17.4021 245.562 17.3503 247.256 18.1472C248.896 18.9188 250.279 20.3947 251.379 22.5905C252.608 24.0919 253.337 26.5728 251.745 29.1911C250.464 31.2986 247.788 33.2878 243.149 34.9772C249.123 38.9304 256.1 45.7598 260.494 55.2731C265.649 66.4333 267.202 81.1875 259.58 99.1022C259.287 99.7912 258.53 100.159 257.808 99.9636C255.743 99.4049 252.505 99.0896 249.316 99.5173C246.101 99.9485 243.218 101.094 241.525 103.18C241.26 103.507 240.87 103.707 240.45 103.732C240.03 103.757 239.619 103.605 239.316 103.312C237.105 101.169 233.714 96.8005 230.906 91.0769C228.539 86.2511 226.553 80.392 226.069 74.0202C225.174 74.8632 224.151 75.7352 223.021 76.5436C220.615 78.2666 217.628 79.7784 214.311 80.0368C210.93 80.3002 207.371 79.2472 203.935 76.1345C200.859 73.3487 197.902 68.9335 195.173 62.3747C191.46 65.7961 186.051 69.6396 180.071 72.4841C173.388 75.663 165.75 77.713 158.882 76.2741L158.22 76.1237C158.149 76.1064 158.079 76.0837 158.012 76.0563C157.024 75.6552 155.966 74.8256 155.03 73.8044C154.074 72.7601 153.154 71.4164 152.492 69.8728C151.829 68.327 151.42 66.5601 151.504 64.7009C148.582 67.2407 144.999 70.0525 141.021 72.069C134.827 75.2092 127.448 76.5346 120.003 71.8815L119.648 71.656C113.736 67.8101 110.942 62.1017 111.189 55.7546C111.434 49.4812 114.636 42.7403 120.356 36.5925C131.813 24.2792 153.645 14.0124 184.146 14.0124L184.205 14.0134C191.676 14.3093 209.355 16.7496 223.435 24.1628C223.279 21.6847 223.404 18.8873 224.176 16.6276C224.735 14.9897 225.713 13.4088 227.399 12.5974ZM232.241 15.6501C230.421 14.8782 229.342 14.9929 228.7 15.3015C228.027 15.6252 227.441 16.3501 227.015 17.5974C226.15 20.1306 226.276 23.8805 226.726 26.6491C226.819 27.2238 226.571 27.8015 226.09 28.1296C225.609 28.4575 224.981 28.477 224.48 28.1804C210.682 20.01 191.826 17.322 184.11 17.0124C154.258 17.0203 133.313 27.0711 122.553 38.6354C117.162 44.4286 114.395 50.5187 114.187 55.8718C113.98 61.1512 116.248 65.8652 121.284 69.1413L121.881 69.5144C128.043 73.2174 134.133 72.1977 139.665 69.3933C145.445 66.463 150.37 61.7018 153.758 58.6296C154.323 58.1173 155.182 58.1099 155.755 58.613C156.292 59.0849 156.417 59.8645 156.072 60.4763L155.997 60.5954C154.034 63.4228 154.224 66.3008 155.249 68.6901C155.767 69.8986 156.494 70.9612 157.242 71.778C157.96 72.562 158.623 73.0372 159.053 73.237C165.076 74.6637 172.174 72.9174 178.782 69.7741C185.402 66.6253 191.272 62.1982 194.655 58.6979L194.796 58.569C195.141 58.2926 195.595 58.1804 196.034 58.2702C196.536 58.3728 196.951 58.7251 197.135 59.2038C200.003 66.7012 203.039 71.2766 205.948 73.9118C208.814 76.5074 211.573 77.2407 214.077 77.0456C216.645 76.8455 219.11 75.6541 221.275 74.1042C223.431 72.5613 225.19 70.7348 226.329 69.4177C226.742 68.9399 227.41 68.7719 228 68.9978C228.59 69.2237 228.975 69.7949 228.963 70.4265C228.829 77.5966 230.93 84.3131 233.6 89.7556C235.837 94.3181 238.442 97.9153 240.365 100.066C242.718 97.9664 245.898 96.9486 248.917 96.5436C251.913 96.1418 254.95 96.3156 257.299 96.7712C264.044 80.1506 262.454 66.6708 257.77 56.531C252.951 46.0968 244.808 39.1003 238.838 35.8796C238.3 35.5897 237.992 35.0031 238.059 34.3962C238.125 33.7891 238.554 33.2823 239.142 33.1159C245.582 31.2921 248.238 29.1852 249.182 27.6325C250.022 26.2492 249.609 25.1035 248.994 24.4118C248.903 24.3093 248.827 24.1944 248.767 24.071C247.853 22.1923 246.861 21.2765 245.979 20.861C245.107 20.4512 244.139 20.4326 243.07 20.7497C240.977 21.3707 238.828 23.192 237.379 24.8884L237.099 25.2253C236.69 25.7311 236.002 25.917 235.395 25.6843C234.787 25.4516 234.4 24.854 234.434 24.2048C234.598 21.0806 234.147 18.9577 233.589 17.6032C233.036 16.2613 232.419 15.7534 232.241 15.6501Z" fill="#030303"/>
<path d="M153.386 96.3652C153.386 99.7887 150.61 102.564 147.187 102.564C143.764 102.564 140.988 99.7887 140.988 96.3652C140.988 92.9418 143.764 90.1665 147.187 90.1665C150.61 90.1665 153.386 92.9418 153.386 96.3652Z" fill="#030303"/>
<path d="M171.44 109.102C171.44 111.102 169.819 112.724 167.818 112.724C165.818 112.724 164.196 111.102 164.196 109.102C164.196 107.102 165.818 105.48 167.818 105.48C169.819 105.48 171.44 107.102 171.44 109.102Z" fill="#030303"/>
<path d="M173.996 117.72C174.911 116.762 176.422 116.633 177.491 117.464C178.56 118.295 178.808 119.791 178.104 120.914L177.95 121.133C175.612 124.141 172.695 125.21 169.968 125.109C167.727 125.027 165.762 124.167 164.433 123.274L163.904 122.892L163.701 122.718C162.742 121.803 162.613 120.292 163.444 119.223C164.275 118.154 165.771 117.906 166.894 118.61L167.113 118.764L167.377 118.953C168.05 119.398 169.084 119.845 170.162 119.885C171.23 119.924 172.53 119.586 173.822 117.923L173.996 117.72Z" fill="#030303"/>
<path d="M233.325 236.278C230.149 242.462 221.415 240.805 217.445 239.203C208.345 246.615 203.261 242.593 201.856 239.655C197.068 242.693 194.198 239.462 193.361 237.467C190.787 238.419 189.122 237.071 188.612 236.278C183.597 221.736 197.666 214.757 205.327 213.085C231.402 212.918 234.857 228.477 233.325 236.278Z" fill="#FEE6D3"/>
<path d="M205.317 211.585C218.65 211.499 226.537 215.443 230.843 220.748C235.114 226.01 235.628 232.331 234.797 236.566L234.755 236.774L234.659 236.963C232.735 240.709 229.134 241.984 225.76 242.158C222.814 242.31 219.833 241.649 217.711 240.904C213.269 244.329 209.524 245.309 206.509 244.788C204.119 244.375 202.401 243.054 201.331 241.647C199.111 242.665 197.12 242.584 195.481 241.803C194.182 241.183 193.231 240.183 192.602 239.216C189.924 239.657 188.056 238.186 187.35 237.09L187.253 236.937L187.194 236.767C185.854 232.88 185.762 229.41 186.582 226.364C187.399 223.329 189.093 220.816 191.166 218.784C195.278 214.753 201.003 212.494 205.007 211.62L205.161 211.586L205.317 211.585ZM205.497 214.585C201.851 215.406 196.801 217.462 193.266 220.927C191.491 222.666 190.129 224.729 189.479 227.143C188.845 229.498 188.864 232.284 189.961 235.577C190.286 235.958 191.233 236.655 192.841 236.06L194.189 235.562L194.745 236.888C195.065 237.651 195.776 238.619 196.772 239.095C197.653 239.515 199.021 239.677 201.052 238.389L202.48 237.483L203.21 239.008C203.745 240.128 205.005 241.484 207.02 241.832C209.021 242.177 212.138 241.59 216.498 238.04L217.185 237.48L218.006 237.811C219.851 238.556 222.806 239.306 225.606 239.162C228.315 239.022 230.618 238.079 231.892 235.773C232.533 232.211 232.035 226.976 228.514 222.639C224.972 218.274 218.136 214.536 205.497 214.585Z" fill="#030303"/>
<path d="M203.291 220.65C203.996 220.366 204.816 220.657 205.178 221.344C205.563 222.077 205.281 222.985 204.548 223.37L204.203 223.556C197.035 227.503 195.018 234.287 194.895 237.055C194.858 237.882 194.158 238.523 193.33 238.487C192.503 238.45 191.862 237.75 191.898 236.922C192.061 233.282 194.567 225.229 203.152 220.714L203.291 220.65Z" fill="#030303"/>
<path d="M212.202 223.212C212.907 222.928 213.727 223.219 214.089 223.906C214.474 224.639 214.192 225.547 213.459 225.932L213.114 226.118C205.946 230.065 203.929 236.849 203.806 239.617C203.769 240.444 203.069 241.085 202.241 241.049C201.414 241.012 200.773 240.312 200.81 239.484C200.972 235.844 203.478 227.791 212.064 223.276L212.202 223.212Z" fill="#030303"/>
<path d="M99.5477 103.875C101.776 104 103.482 105.908 103.357 108.137C103.232 110.365 101.325 112.071 99.0965 111.947L98.5729 111.917L95.2597 171.06L95.2588 171.059C95.2569 171.099 95.2562 171.139 95.254 171.179C94.8753 177.94 89.2697 183.123 82.7342 182.758C76.1985 182.391 71.2073 176.614 71.586 169.853C71.5883 169.813 71.5911 169.773 71.5937 169.733L71.5918 169.733L74.9059 110.592L74.3804 110.562C72.1518 110.437 70.4459 108.529 70.5708 106.3C70.6956 104.072 72.6032 102.366 74.8316 102.491L99.5477 103.875Z" fill="white"/>
<path d="M74.9059 110.592L74.3804 110.562L74.5482 107.567L78.069 107.764L74.7549 166.906L74.7851 166.907L74.5874 169.929C74.5833 169.992 74.5825 169.999 74.5813 170.021L74.5659 170.506C74.53 175.487 78.265 179.503 82.902 179.762L82.7342 182.758C76.1985 182.391 71.2073 176.614 71.586 169.853C71.5883 169.813 71.5911 169.773 71.5937 169.733L71.5918 169.733L74.9059 110.592ZM95.7454 108.754L99.2643 108.951L99.0965 111.947L98.5729 111.917L95.2597 171.06L95.2588 171.059C95.2569 171.099 95.2562 171.139 95.254 171.179C94.8753 177.94 89.2697 183.123 82.7342 182.758L82.902 179.762C87.539 180.022 91.6992 176.448 92.2198 171.495L92.2584 171.017C92.2585 171.011 92.2589 170.995 92.2594 170.981L92.2619 170.919L92.6041 163.588L92.6695 163.661L95.7454 108.754ZM100.362 107.969C100.394 107.395 99.9542 106.903 99.3799 106.871L74.6638 105.486C74.0901 105.454 73.5983 105.893 73.5661 106.468C73.5339 107.042 73.9739 107.535 74.5482 107.567L74.3804 110.562L74.173 110.546C72.0469 110.318 70.4498 108.459 70.5708 106.3C70.6917 104.142 72.4857 102.473 74.6236 102.484L74.8316 102.491L99.5477 103.875C101.776 104 103.482 105.908 103.357 108.137L103.341 108.344C103.121 110.402 101.373 111.964 99.3045 111.953L99.0965 111.947L99.2643 108.951C99.8379 108.983 100.33 108.544 100.362 107.969Z" fill="#030303"/>
<path d="M91.2294 169.648C91.2294 169.649 91.2289 169.649 91.2284 169.649C91.228 169.649 91.2274 169.649 91.2274 169.65C91.2263 169.675 91.2265 169.702 91.225 169.728C90.9772 174.148 87.3122 177.537 83.0387 177.298C78.7652 177.059 75.5018 173.281 75.7493 168.861C75.7507 168.835 75.7529 168.809 75.7546 168.783C75.7546 168.782 75.7542 168.782 75.7537 168.782C75.7532 168.782 75.7527 168.781 75.7528 168.781L77.5758 136.239C77.8152 131.966 81.4739 128.695 85.7476 128.934C90.0214 129.174 93.2919 132.833 93.0525 137.106L91.2294 169.648Z" fill="#BEEFFF"/>
<path d="M85.9829 171.821C85.9016 173.273 84.6584 174.385 83.2063 174.303C81.7542 174.222 80.6429 172.979 80.7243 171.527C80.8056 170.075 82.0488 168.963 83.5009 169.045C84.953 169.126 86.0643 170.369 85.9829 171.821Z" fill="white"/>
<path d="M89.1559 163.426C89.0929 164.55 88.1301 165.411 87.0055 165.348C85.8808 165.285 85.0202 164.322 85.0832 163.198C85.1462 162.073 86.109 161.212 87.2336 161.275C88.3583 161.338 89.2189 162.301 89.1559 163.426Z" fill="white"/>
<path d="M72.193 127.578C65.328 128.64 65.8931 133.843 67.0338 136.312C70.0986 138.641 74.6787 138.815 76.5856 138.61C79.16 138.243 80.3825 136.585 80.6719 135.801C82.9194 129.141 75.9558 127.544 72.193 127.578Z" fill="#FEE6D3"/>
<path d="M72.1797 126.078C74.2007 126.06 77.2149 126.466 79.4912 127.913C80.6599 128.656 81.6975 129.718 82.2334 131.189C82.7377 132.573 82.7396 134.16 82.207 135.926L82.0928 136.281C82.0883 136.295 82.084 136.308 82.0791 136.321C81.6298 137.537 80.065 139.514 77.0898 140.048L76.7979 140.096L76.7451 140.102C75.6545 140.219 73.8919 140.222 71.9854 139.889C70.2039 139.577 68.187 138.953 66.4658 137.754L66.126 137.506C65.9309 137.358 65.7747 137.164 65.6719 136.942C65.0074 135.503 64.4524 133.176 65.1865 130.948C65.9765 128.552 68.11 126.692 71.9639 126.096L72.0713 126.083C72.1073 126.08 72.1436 126.079 72.1797 126.078ZM72.3203 129.077C69.3886 129.556 68.3907 130.811 68.0361 131.887C67.666 133.01 67.8647 134.334 68.251 135.339C69.4768 136.172 70.9984 136.671 72.502 136.934C74.1033 137.214 75.564 137.206 76.3877 137.122C78.3515 136.836 79.1413 135.603 79.2617 135.285C79.7281 133.883 79.6662 132.904 79.415 132.215C79.1597 131.514 78.6433 130.929 77.8818 130.444C76.3319 129.459 74.0494 129.078 72.3203 129.077Z" fill="#030303"/>
<path d="M71.5851 138.146C63.8605 138.433 64.1395 142.88 65.2446 145.068C68.504 147.309 73.598 147.863 75.7376 147.86C78.6322 147.778 80.1069 146.486 80.4824 145.85C83.4371 140.422 75.782 138.453 71.5851 138.146Z" fill="#FEE6D3"/>
<path d="M72.1172 136.686C74.2876 136.888 77.2633 137.491 79.4727 138.783C80.6598 139.476 81.7905 140.465 82.3287 141.859C82.8559 143.226 82.7173 144.721 81.9598 146.259L81.8001 146.567L81.7739 146.613C81.1079 147.74 79.2077 149.173 76.0861 149.346L75.7795 149.359C75.7664 149.359 75.7533 149.36 75.7402 149.36C74.566 149.362 72.6505 149.213 70.5959 148.772C68.6831 148.361 66.5398 147.674 64.7484 146.537L64.3947 146.304C64.1873 146.161 64.019 145.968 63.9055 145.744C63.2374 144.421 62.7019 142.21 63.7798 140.189C64.904 138.08 67.4347 136.8 71.5295 136.648L71.6939 136.65L72.1172 136.686ZM71.5642 139.649C67.9945 139.796 66.8163 140.872 66.4278 141.6C66.0464 142.315 66.1169 143.249 66.4311 144.049C67.7884 144.893 69.5141 145.471 71.2259 145.838C73.0546 146.231 74.7453 146.359 75.7143 146.359C76.931 146.322 77.7897 146.036 78.3512 145.738C78.636 145.587 78.8455 145.432 78.9883 145.304C79.1074 145.197 79.1648 145.121 79.1832 145.096C79.744 144.049 79.7006 143.383 79.5297 142.94C79.3325 142.429 78.8408 141.888 77.9591 141.372C76.2037 140.347 73.5583 139.805 71.5642 139.649Z" fill="#030303"/>
<path d="M72.7612 147.938C66.8208 146.401 65.5523 150.672 65.6607 153C67.3814 155.883 71.0516 157.599 72.6716 158.097C74.8892 158.697 76.4349 157.82 76.9306 157.307C80.9724 152.864 75.8351 149.209 72.7612 147.938Z" fill="#FEE6D3"/>
<path d="M73.3343 146.552C74.9934 147.238 77.3393 148.608 78.7349 150.561C79.4523 151.565 79.9707 152.799 79.9156 154.206C79.8635 155.535 79.3066 156.835 78.2571 158.07L78.0402 158.316C78.0304 158.327 78.02 158.338 78.0098 158.348C77.1781 159.21 75.1783 160.228 72.5372 159.61L72.2794 159.545L72.2312 159.531C71.2944 159.243 69.8482 158.634 68.3974 157.708C67.0438 156.845 65.5911 155.646 64.5711 154.086L64.3726 153.769C64.2777 153.61 64.2139 153.435 64.1828 153.254L64.162 153.07C64.0973 151.676 64.4245 149.581 65.8253 148.018C67.3426 146.326 69.7807 145.617 73.1367 146.485L73.3343 146.552ZM72.2913 149.367C69.7726 148.739 68.6276 149.388 68.0597 150.021C67.4583 150.692 67.1886 151.691 67.1574 152.555C67.8611 153.583 68.8997 154.47 70.011 155.178C71.2185 155.949 72.4065 156.442 73.0928 156.656C74.7204 157.085 75.6925 156.419 75.8447 156.27C76.6562 155.368 76.8961 154.64 76.9178 154.089C76.9401 153.521 76.7397 152.929 76.294 152.305C75.3855 151.034 73.6874 149.962 72.2913 149.367Z" fill="#030303"/>
<path d="M87.7955 136.155C89.3277 142.369 93.6123 143.426 95.5631 143.178C92.7543 147.349 93.3516 161.736 93.8125 168.439C113.561 158.821 110.136 141.85 104.075 134.878C93.4348 122.638 86.2282 129.798 87.7955 136.155Z" fill="#FEE6D3"/>
<path d="M90.8502 127.131C94.6917 125.751 99.7677 127.637 105.208 133.895L105.513 134.257C108.65 138.078 110.998 144.299 110.109 150.867C109.177 157.751 104.726 164.792 94.4693 169.788C94.0209 170.007 93.4928 169.987 93.0611 169.737C92.6296 169.488 92.3502 169.04 92.316 168.542C92.0842 165.171 91.8162 159.843 91.9625 154.816C92.0355 152.304 92.2126 149.832 92.5591 147.701C92.7433 146.569 92.9839 145.474 93.3091 144.496C92.4632 144.29 91.5624 143.923 90.6871 143.336C88.9485 142.17 87.3898 140.203 86.5064 137.142L86.3394 136.514C85.4169 132.771 87.0271 128.504 90.8502 127.131ZM102.943 135.862C97.743 129.881 93.8948 129.225 91.8648 129.954C89.8167 130.69 88.6069 133.181 89.2515 135.796L89.3873 136.304C90.0969 138.769 91.2718 140.116 92.358 140.844C93.5535 141.645 94.7459 141.769 95.3736 141.69C95.9575 141.615 96.5315 141.89 96.8404 142.391C97.1492 142.892 97.136 143.527 96.8072 144.016C96.2964 144.774 95.8456 146.181 95.5201 148.183C95.2031 150.132 95.0326 152.458 94.9615 154.902C94.8489 158.773 94.9894 162.852 95.1666 166.036C103.178 161.543 106.415 155.788 107.135 150.465C107.902 144.795 105.85 139.399 103.201 136.168L102.943 135.862Z" fill="#030303"/>
<path d="M179.13 195.15L165.877 158.588C184.524 162.61 195.918 158.75 200.974 157.472L179.13 195.15Z" fill="#FFA7A7"/>
<path d="M200.717 155.994C201.268 155.898 201.831 156.117 202.172 156.568C202.512 157.02 202.569 157.621 202.325 158.125L202.272 158.224L180.428 195.902C180.135 196.406 179.578 196.696 178.997 196.644C178.417 196.593 177.918 196.209 177.72 195.661L164.467 159.099C164.281 158.586 164.388 158.013 164.747 157.601C165.106 157.19 165.66 157.007 166.193 157.122C184.469 161.064 195.563 157.292 200.606 156.017L200.717 155.994ZM197.869 159.836C192.078 161.297 182.292 163.171 168.194 160.58L179.445 191.616L197.869 159.836Z" fill="#030303"/>
<path d="M221.501 151.037C221.501 150.208 222.173 149.537 223.001 149.537C223.83 149.537 224.501 150.208 224.501 151.037V166.948C224.501 167.587 224.097 168.156 223.493 168.365L207.958 173.742L211.76 183.627C212.037 184.346 211.724 185.158 211.037 185.505L186.843 197.71L186.703 197.773C185.993 198.045 185.178 197.74 184.829 197.046C184.456 196.307 184.752 195.405 185.492 195.032L208.473 183.437L204.601 173.371C204.455 172.991 204.47 172.568 204.641 172.2C204.812 171.831 205.126 171.548 205.51 171.415L221.501 165.878V151.037Z" fill="#030303"/>
<path d="M233.871 204.73C234.631 204.73 235.283 205.306 235.362 206.079C235.445 206.903 234.845 207.639 234.021 207.723L233.222 207.818C231.239 208.09 228.463 208.699 225.82 209.75C222.747 210.971 220.145 212.674 218.949 214.856C218.55 215.583 217.638 215.848 216.912 215.45C216.185 215.052 215.92 214.139 216.318 213.413C218.027 210.297 221.443 208.261 224.711 206.962C228.031 205.642 231.502 204.964 233.717 204.738L233.871 204.73Z" fill="#030303"/>
<path d="M223.46 190.677C224.213 190.487 224.977 190.901 225.238 191.616L225.283 191.763L229.127 206.93L229.158 207.08C229.269 207.833 228.795 208.561 228.042 208.752C227.29 208.943 226.525 208.528 226.265 207.814L226.22 207.667L222.375 192.499L222.344 192.349C222.233 191.597 222.708 190.868 223.46 190.677Z" fill="#030303"/>
<path d="M188.634 210.183C188.634 212.365 186.865 214.135 184.682 214.135C182.499 214.135 180.73 212.365 180.73 210.183C180.73 208 182.499 206.23 184.682 206.23C186.865 206.23 188.634 208 188.634 210.183Z" fill="#030303"/>
<path d="M185.634 210.183C185.634 209.657 185.208 209.23 184.682 209.23C184.156 209.23 183.73 209.657 183.73 210.183C183.73 210.708 184.156 211.135 184.682 211.135V214.135C182.499 214.135 180.73 212.365 180.73 210.183C180.73 208 182.499 206.23 184.682 206.23C186.865 206.23 188.634 208 188.634 210.183C188.634 212.365 186.865 214.135 184.682 214.135V211.135C185.208 211.135 185.634 210.708 185.634 210.183Z" fill="#030303"/>
<path d="M240.356 118.36C239.911 119.059 238.983 119.265 238.284 118.82C237.586 118.375 237.38 117.448 237.824 116.75L240.356 118.36ZM237.824 116.75C239.365 114.329 244.088 110.164 251.475 110.822L252.197 110.9L252.349 110.927C253.089 111.1 253.593 111.81 253.493 112.58C253.394 113.35 252.727 113.908 251.967 113.887L251.814 113.876L251.218 113.81C245.135 113.268 241.41 116.703 240.356 118.36L237.824 116.75Z" fill="#030303"/>
<path d="M94.8462 67.7778C94.8462 73.2333 90.4237 77.6558 84.9683 77.6558C79.5128 77.6558 75.0903 73.2333 75.0903 67.7778C75.0903 62.3224 79.5128 57.8999 84.9683 57.8999C90.4237 57.8999 94.8462 62.3224 94.8462 67.7778Z" fill="#BEEFFF"/>
<path d="M61.9438 101.466C61.9438 105.614 58.581 108.977 54.4326 108.977C50.2843 108.977 46.9214 105.614 46.9214 101.466C46.9214 97.3175 50.2843 93.9546 54.4326 93.9546C58.581 93.9546 61.9438 97.3175 61.9438 101.466Z" fill="#BEEFFF"/>
<path d="M298.174 203.882C298.174 208.031 294.811 211.394 290.663 211.394C286.515 211.394 283.152 208.031 283.152 203.882C283.152 199.734 286.515 196.371 290.663 196.371C294.811 196.371 298.174 199.734 298.174 203.882Z" fill="#BEEFFF"/>
<path d="M98.1899 38.5371C98.1899 40.9658 96.2211 42.9346 93.7925 42.9346C91.3638 42.9346 89.395 40.9658 89.395 38.5371C89.395 36.1085 91.3638 34.1396 93.7925 34.1396C96.2211 34.1396 98.1899 36.1085 98.1899 38.5371Z" fill="#BEEFFF"/>
<path d="M312.572 194.752C312.572 197.181 310.603 199.15 308.174 199.15C305.746 199.15 303.777 197.181 303.777 194.752C303.777 192.324 305.746 190.355 308.174 190.355C310.603 190.355 312.572 192.324 312.572 194.752Z" fill="#BEEFFF"/>
<path d="M23.3218 88.5317C23.3218 91.5267 20.8939 93.9546 17.8989 93.9546C14.904 93.9546 12.4761 91.5267 12.4761 88.5317C12.4761 85.5368 14.904 83.1089 17.8989 83.1089C20.8939 83.1089 23.3218 85.5368 23.3218 88.5317Z" fill="#BEEFFF"/>
<path d="M47.5527 190.948C47.5527 193.943 45.1248 196.371 42.1299 196.371C39.1349 196.371 36.707 193.943 36.707 190.948C36.707 187.953 39.1349 185.525 42.1299 185.525C45.1248 185.525 47.5527 187.953 47.5527 190.948Z" fill="#BEEFFF"/>
<path d="M283.152 177.731C283.152 180.726 280.724 183.154 277.729 183.154C274.734 183.154 272.306 180.726 272.306 177.731C272.306 174.736 274.734 172.309 277.729 172.309C280.724 172.309 283.152 174.736 283.152 177.731Z" fill="#BEEFFF"/>
<path d="M162.482 97.6743C162.482 89.2272 155.634 82.3794 147.187 82.3794C138.74 82.3794 131.892 89.2272 131.892 97.6743C131.892 106.121 138.74 112.969 147.187 112.969V115.969C137.083 115.969 128.892 107.778 128.892 97.6743C128.892 87.5703 137.083 79.3794 147.187 79.3794C157.291 79.3794 165.482 87.5703 165.482 97.6743C165.482 107.778 157.291 115.969 147.187 115.969V112.969C155.634 112.969 162.482 106.121 162.482 97.6743Z" fill="#030303"/>
<path d="M213.116 104.1C213.116 95.6525 206.268 88.8047 197.821 88.8047C189.374 88.8047 182.526 95.6525 182.526 104.1C182.526 112.547 189.374 119.395 197.821 119.395V122.395C187.717 122.395 179.526 114.204 179.526 104.1C179.526 93.9956 187.717 85.8047 197.821 85.8047C207.925 85.8047 216.116 93.9956 216.116 104.1C216.116 114.204 207.925 122.395 197.821 122.395V119.395C206.268 119.395 213.116 112.547 213.116 104.1Z" fill="#030303"/>
<path d="M200.4 103.873C200.4 107.297 197.625 110.072 194.201 110.072C190.778 110.072 188.002 107.297 188.002 103.873C188.002 100.45 190.778 97.6743 194.201 97.6743C197.625 97.6743 200.4 100.45 200.4 103.873Z" fill="#030303"/>
<path d="M163.57 98.5066C165.482 97.7615 168.426 97.1044 171.62 97.3191C174.95 97.5428 178.622 98.7233 181.626 101.809L181.914 102.114L182.013 102.232C182.469 102.84 182.399 103.707 181.828 104.233C181.257 104.76 180.388 104.759 179.818 104.255L179.709 104.147L179.48 103.906C177.101 101.46 174.187 100.498 171.419 100.312C168.532 100.118 165.88 100.778 164.376 101.418L164.232 101.47C163.506 101.696 162.713 101.339 162.409 100.625C162.085 99.8624 162.44 98.9812 163.202 98.657L163.57 98.5066Z" fill="#030303"/>
<path d="M29.6038 14.7407C40.952 12.5425 51.9334 19.9599 54.132 31.308C55.0827 36.2154 54.2335 41.0537 52.0475 45.1434C52.1203 48.8587 53.0834 51.8556 53.7112 53.141L34.3603 61.2713C32.8985 58.8659 31.154 57.0719 29.663 55.8529C21.5007 54.2938 14.7135 47.9251 13.0366 39.2689C10.8385 27.9207 18.2557 16.9391 29.6038 14.7407Z" fill="#FFC400"/>
<path d="M51.3419 31.37C49.2619 21.9231 40.1283 15.7539 30.5882 17.3522L30.1259 17.4357C20.4202 19.3159 14.0241 28.5902 15.6481 38.2845L15.7316 38.7468C17.1423 46.0288 22.717 51.4532 29.5166 53.0174L30.1782 53.1569L30.3446 53.1942C30.7304 53.2931 31.0906 53.475 31.3999 53.7279L31.7203 53.9951C32.8885 54.9869 34.1652 56.2733 35.3666 57.8704L50.2442 51.6192C49.7553 49.888 49.3521 47.6728 49.3036 45.1975L49.3052 45.0211C49.3235 44.6123 49.4338 44.2119 49.6274 43.8496C51.5274 40.2949 52.2633 36.0957 51.437 31.83L51.3419 31.37ZM54.132 31.308C55.0827 36.2154 54.2335 41.0537 52.0475 45.1434C52.1203 48.8587 53.0834 51.8556 53.7112 53.141L34.3603 61.2713C32.8985 58.8659 31.154 57.0719 29.663 55.8529C21.5007 54.2938 14.7135 47.9251 13.0366 39.2689C10.8385 27.9207 18.2557 16.9391 29.6038 14.7407C40.952 12.5425 51.9334 19.9599 54.132 31.308Z" fill="#030303"/>
<path d="M54.5176 68.666C55.0419 71.3725 53.2729 73.9916 50.5664 74.5159C47.8598 75.0402 45.2407 73.2712 44.7164 70.5647C44.1921 67.8581 45.9612 65.239 48.6677 64.7147C51.3742 64.1904 53.9933 65.9595 54.5176 68.666Z" fill="#030303"/>
<path d="M32.8132 64.27C31.8798 61.9994 32.9637 59.402 35.2343 58.4685L51.8451 51.6397C54.1157 50.7063 56.7131 51.7902 57.6465 54.0608C58.58 56.3314 57.496 58.9288 55.2254 59.8622L38.6146 66.691C36.3441 67.6245 33.7467 66.5405 32.8132 64.27Z" fill="white"/>
<path d="M54.1822 57.3235L55.226 59.8624L38.615 66.6913L37.5712 64.1524L54.1822 57.3235ZM55.1082 55.1045C54.7512 54.2361 53.7578 53.8217 52.8893 54.1785L36.2783 61.0074C35.4097 61.3645 34.9951 62.3578 35.3522 63.2264C35.7094 64.0948 36.7026 64.5094 37.5712 64.1524L38.615 66.6913L38.4014 66.7728C36.2553 67.5307 33.8764 66.5378 32.9056 64.4793L32.8133 64.2701C31.9089 62.0704 32.8981 59.5638 35.0254 58.5608L35.2345 58.4685L51.8455 51.6395L52.0591 51.5581C54.2766 50.7753 56.742 51.8616 57.6463 54.0611L57.7277 54.2747C58.4854 56.4206 57.4934 58.7993 55.4351 59.7701L55.226 59.8624L54.1822 57.3235C55.0505 56.9663 55.4651 55.9729 55.1082 55.1045Z" fill="#030303"/>
<path d="M35.8694 70.8158C34.9359 68.5453 36.0199 65.9479 38.2905 65.0144L54.9012 58.1856C57.1718 57.2522 59.7692 58.3361 60.7027 60.6067C61.6361 62.8773 60.5522 65.4747 58.2816 66.4081L41.6708 73.2369C39.4002 74.1704 36.8028 73.0864 35.8694 70.8158Z" fill="white"/>
<path d="M57.2384 63.8694L58.2821 66.4083L41.6711 73.2372L40.6273 70.6983L57.2384 63.8694ZM58.1644 61.6504C57.8074 60.782 56.8139 60.3676 55.9454 60.7244L39.3344 67.5533C38.4658 67.9104 38.0513 68.9037 38.4084 69.7723C38.7655 70.6407 39.7588 71.0553 40.6273 70.6983L41.6711 73.2372L41.4575 73.3187C39.3114 74.0766 36.9326 73.0837 35.9617 71.0251L35.8694 70.816C34.9651 68.6163 35.9543 66.1097 38.0815 65.1067L38.2906 65.0144L54.9017 58.1854L55.1152 58.104C57.3327 57.3212 59.7982 58.4075 60.7024 60.607L60.7839 60.8206C61.5416 62.9665 60.5495 65.3452 58.4913 66.316L58.2821 66.4083L57.2384 63.8694C58.1066 63.5122 58.5213 62.5188 58.1644 61.6504Z" fill="#030303"/>
<path d="M36.8252 30.3643C37.338 29.8412 38.035 29.5145 38.8717 29.4834C39.5683 29.4577 40.3037 29.6376 41.0711 29.9815L41.402 30.1392L41.5284 30.2112C41.569 30.2373 41.6085 30.2655 41.6462 30.2958C42.8922 31.2966 44.2914 33.1879 44.3956 35.6668C44.4844 37.7807 43.623 40.0707 41.3852 42.3606C42.9605 46.0231 44.7545 49.1622 45.8484 50.8224L43.5567 52.3327C42.2452 50.3424 39.9575 46.312 38.1475 41.6986L38.0994 41.6403C38.1056 41.6353 38.112 41.6297 38.1182 41.6247C37.1179 39.0643 36.2655 36.3272 35.8126 33.661L35.7952 33.4993L35.7897 33.1731C35.8022 32.3576 36.0095 31.1964 36.8252 30.3643ZM38.9733 32.2261C38.8349 32.2312 38.8048 32.2671 38.786 32.2862C38.7393 32.334 38.6612 32.4515 38.6023 32.6779C38.5512 32.8743 38.5305 33.0935 38.534 33.291C38.8906 35.3469 39.5069 37.4648 40.2489 39.504C41.3954 38.0316 41.6947 36.7619 41.6536 35.7822C41.5936 34.3532 40.7991 33.1865 40.0354 32.5276C39.4766 32.2648 39.1398 32.2199 38.9733 32.2261Z" fill="white"/>
<path d="M27.1074 37.4344L27.2133 37.4268L27.5636 37.4226C29.3073 37.451 30.8981 38.2123 32.2716 39.271C33.7379 40.4011 35.057 41.9447 36.1966 43.5837L36.5904 44.1629C38.5264 47.0872 40.0156 50.3817 40.8398 52.6612L38.2582 53.594C37.5163 51.5423 36.1879 48.6026 34.4937 45.9766C30.4994 46.9783 27.1416 45.1937 25.605 43.8668L25.3001 43.5867C25.274 43.5611 25.2489 43.5344 25.2249 43.5068C23.9441 42.0295 23.3636 40.4168 24.2467 39.0221C24.6243 38.4259 25.1777 38.0578 25.661 37.835C26.0292 37.6653 26.411 37.5548 26.7646 37.4879L27.1074 37.4344ZM27.3783 40.1681C27.1826 40.1961 26.9772 40.2508 26.8095 40.3281C26.7213 40.3687 26.6581 40.4092 26.6167 40.442C26.595 40.4592 26.582 40.4727 26.5745 40.481C26.5748 40.4975 26.5769 40.5274 26.5889 40.5757C26.6326 40.7529 26.7883 41.1092 27.2588 41.6615C28.0932 42.4589 30.1522 43.6973 32.686 43.4998C32.0085 42.6932 31.3084 41.9931 30.5968 41.4446C29.4533 40.5632 28.378 40.144 27.3783 40.1681Z" fill="white"/>
<path d="M39.7782 1.12466C40.0228 0.473411 40.7263 0.100125 41.4133 0.281696C42.1461 0.475356 42.5826 1.22702 42.3889 1.95978L40.4239 9.39796C40.2303 10.1307 39.4788 10.5681 38.746 10.3745C38.0133 10.1809 37.5759 9.42936 37.7695 8.69664L39.7354 1.25828L39.7782 1.12466Z" fill="#FFC300"/>
<path d="M18.1278 4.27139C17.9972 3.58808 18.403 2.90287 19.084 2.69973C19.8103 2.48309 20.5746 2.89706 20.7912 3.62336L22.991 10.9955C23.2077 11.7218 22.7943 12.4868 22.0681 12.7035C21.3418 12.9201 20.5768 12.5067 20.3601 11.7805L18.161 4.40771L18.1278 4.27139Z" fill="#FFC300"/>
<path d="M1.60401 19.2669C0.977645 18.9641 0.669716 18.2297 0.912871 17.562C1.17221 16.8498 1.96038 16.4833 2.67255 16.7426L9.90178 19.3744C10.6139 19.6337 10.9814 20.4218 10.7221 21.1339C10.4628 21.8461 9.67466 22.2135 8.96252 21.9543L1.7332 19.3216L1.60401 19.2669Z" fill="#FFC300"/>
<path d="M309.393 127.577C307.752 138.473 312.47 146.577 315.034 149.267C306.654 149.267 302.551 158.807 301.547 163.577C302.916 153.476 297.776 147.138 295.034 145.232C301.598 145.635 307.342 133.63 309.393 127.577Z" fill="#FFC300"/>
</svg>
