<svg width="79" height="88" viewBox="0 0 79 88" fill="none" xmlns="http://www.w3.org/2000/svg">
<path d="M76 85H75.3379L38.3223 66.4844L3.62012 85H3V3H76V85Z" fill="#1A49FF"/>
<path d="M76 85V87.5C77.3807 87.5 78.5 86.3807 78.5 85H76ZM75.3379 85L74.2195 87.2359C74.5667 87.4096 74.9496 87.5 75.3379 87.5V85ZM38.3223 66.4844L39.4407 64.2485C38.7159 63.886 37.8604 63.8972 37.1454 64.2787L38.3223 66.4844ZM3.62012 85V87.5C4.03062 87.5 4.4348 87.3989 4.79697 87.2057L3.62012 85ZM3 85H0.5C0.5 86.3807 1.61929 87.5 3 87.5L3 85ZM3 3V0.5C1.61929 0.5 0.5 1.61929 0.5 3L3 3ZM76 3H78.5C78.5 1.61929 77.3807 0.5 76 0.5V3ZM76 85V82.5H75.3379V85V87.5H76V85ZM75.3379 85L76.4563 82.7641L39.4407 64.2485L38.3223 66.4844L37.2039 68.7203L74.2195 87.2359L75.3379 85ZM38.3223 66.4844L37.1454 64.2787L2.44326 82.7943L3.62012 85L4.79697 87.2057L39.4991 68.69L38.3223 66.4844ZM3.62012 85V82.5H3V85V87.5H3.62012V85ZM3 85H5.5V3H3H0.5V85H3ZM3 3V5.5H76V3V0.5H3V3ZM76 3H73.5V85H76H78.5V3H76Z" fill="#5C7CFA"/>
</svg>
