<svg width="473" height="77" viewBox="0 0 473 77" fill="none" xmlns="http://www.w3.org/2000/svg">
<path d="M463 1C467.971 1 472 5.02944 472 10V67C472 71.9706 467.971 76 463 76H21.0566C16.0861 76 12.0566 71.9706 12.0566 67V11.9092L1 1H463Z" fill="white"/>
<path d="M472 67H473H472ZM12.0566 11.9092H13.0566C13.0566 11.6416 12.9494 11.3852 12.759 11.1973L12.0566 11.9092ZM1 1V0C0.594316 0 0.228831 0.245097 0.0748412 0.62042C-0.0791485 0.995742 0.0088746 1.42691 0.297656 1.71184L1 1ZM463 1V0H461.009V1V2H463V1ZM457.026 1V0H453.043V1V2H457.026V1ZM449.06 1V0H445.078V1V2H449.06V1ZM441.095 1V0H437.112V1V2H441.095V1ZM433.129 1V0H429.147V1V2H433.129V1ZM425.164 1V0H421.181V1V2H425.164V1ZM417.198 1V0H413.216V1V2H417.198V1ZM409.233 1V0H405.25V1V2H409.233V1ZM401.267 1V0H397.284V1V2H401.267V1ZM393.302 1V0H389.319V1V2H393.302V1ZM385.336 1V0H381.353V1V2H385.336V1ZM377.371 1V0H373.388V1V2H377.371V1ZM369.405 1V0H365.422V1V2H369.405V1ZM361.44 1V0H357.457V1V2H361.44V1ZM353.474 1V0H349.491V1V2H353.474V1ZM345.509 1V0H341.526V1V2H345.509V1ZM337.543 1V0H333.56V1V2H337.543V1ZM329.578 1V0H325.595V1V2H329.578V1ZM321.612 1V0H317.629V1V2H321.612V1ZM313.647 1V0H309.664V1V2H313.647V1ZM305.681 1V0H301.698V1V2H305.681V1ZM297.716 1V0H293.733V1V2H297.716V1ZM289.75 1V0H285.767V1V2H289.75V1ZM281.785 1V0H277.802V1V2H281.785V1ZM273.819 1V0H269.836V1V2H273.819V1ZM265.853 1V0H261.871V1V2H265.853V1ZM257.888 1V0H253.905V1V2H257.888V1ZM249.922 1V0H245.94V1V2H249.922V1ZM241.957 1V0H237.974V1V2H241.957V1ZM233.991 1V0H230.009V1V2H233.991V1ZM226.026 1V0H222.043V1V2H226.026V1ZM218.06 1V0H214.078V1V2H218.06V1ZM210.095 1V0H206.112V1V2H210.095V1ZM202.129 1V0H198.147V1V2H202.129V1ZM194.164 1V0H190.181V1V2H194.164V1ZM186.198 1V0H182.216V1V2H186.198V1ZM178.233 1V0H174.25V1V2H178.233V1ZM170.267 1V0H166.285V1V2H170.267V1ZM162.302 1V0H158.319V1V2H162.302V1ZM154.336 1V0H150.354V1V2H154.336V1ZM146.371 1V0H142.388V1V2H146.371V1ZM138.405 1V0H134.422V1V2H138.405V1ZM130.44 1V0H126.457V1V2H130.44V1ZM122.474 1V0H118.491V1V2H122.474V1ZM114.509 1V0H110.526V1V2H114.509V1ZM106.543 1V0H102.56V1V2H106.543V1ZM98.5777 1V0H94.5949V1V2H98.5777V1ZM90.6121 1V0H86.6294V1V2H90.6121V1ZM82.6466 1V0H78.6639V1V2H82.6466V1ZM74.6811 1V0H70.6984V1V2H74.6811V1ZM66.7156 1V0H62.7328V1V2H66.7156V1ZM58.7501 1V0H54.7673V1V2H58.7501V1ZM50.7846 1V0H46.8018V1V2H50.7846V1ZM42.8191 1V0H38.8363V1V2H42.8191V1ZM34.8536 1V0H30.8708V1V2H34.8536V1ZM26.888 1V0H22.9053V1V2H26.888V1ZM18.9225 1V0H14.9398V1V2H18.9225V1ZM10.957 1V0H6.97425V1V2H10.957V1ZM2.99147 1V0H1V1V2H2.99147V1ZM1 1L0.297656 1.71184L1.67974 3.07549L2.38208 2.36365L3.08442 1.65181L1.70234 0.288162L1 1ZM5.14624 5.09094L4.4439 5.80278L7.20806 8.53008L7.9104 7.81824L8.61274 7.1064L5.84858 4.3791L5.14624 5.09094ZM10.6746 10.5455L9.97222 11.2574L11.3543 12.621L12.0566 11.9092L12.759 11.1973L11.3769 9.83369L10.6746 10.5455ZM12.0566 11.9092H11.0566V13.8767H12.0566H13.0566V11.9092H12.0566ZM12.0566 17.8118H11.0566V21.7468H12.0566H13.0566V17.8118H12.0566ZM12.0566 25.6819H11.0566V29.6169H12.0566H13.0566V25.6819H12.0566ZM12.0566 33.552H11.0566V37.4871H12.0566H13.0566V33.552H12.0566ZM12.0566 41.4221H11.0566V45.3572H12.0566H13.0566V41.4221H12.0566ZM12.0566 49.2922H11.0566V53.2273H12.0566H13.0566V49.2922H12.0566ZM12.0566 57.1624H11.0566V61.0974H12.0566H13.0566V57.1624H12.0566ZM12.0566 65.0325H11.0566V67H12.0566H13.0566V65.0325H12.0566ZM12.0566 67H11.0566C11.0566 67.6666 11.122 68.3189 11.247 68.9505L12.2279 68.7565L13.2089 68.5624C13.1091 68.0579 13.0566 67.5356 13.0566 67H12.0566ZM13.5726 72.0005L12.7416 72.5569C13.4714 73.6469 14.4097 74.5853 15.4998 75.3151L16.0561 74.4841L16.6124 73.6531C15.7396 73.0688 14.9879 72.3171 14.4035 71.4442L13.5726 72.0005ZM19.3002 75.8287L19.1061 76.8097C19.7378 76.9346 20.3901 77 21.0566 77V76V75C20.5211 75 19.9988 74.9475 19.4943 74.8477L19.3002 75.8287ZM21.0566 76V77H23.0655V76V75H21.0566V76ZM27.0831 76V77H31.1008V76V75H27.0831V76ZM35.1185 76V77H39.1361V76V75H35.1185V76ZM43.1538 76V77H47.1715V76V75H43.1538V76ZM51.1891 76V77H55.2068V76V75H51.1891V76ZM59.2245 76V77H63.2421V76V75H59.2245V76ZM67.2598 76V77H71.2775V76V75H67.2598V76ZM75.2951 76V77H79.3128V76V75H75.2951V76ZM83.3305 76V77H87.3481V76V75H83.3305V76ZM91.3658 76V77H95.3835V76V75H91.3658V76ZM99.4011 76V77H103.419V76V75H99.4011V76ZM107.436 76V77H111.454V76V75H107.436V76ZM115.472 76V77H119.489V76V75H115.472V76ZM123.507 76V77H127.525V76V75H123.507V76ZM131.543 76V77H135.56V76V75H131.543V76ZM139.578 76V77H143.596V76V75H139.578V76ZM147.613 76V77H151.631V76V75H147.613V76ZM155.649 76V77H159.666V76V75H155.649V76ZM163.684 76V77H167.702V76V75H163.684V76ZM171.719 76V77H175.737V76V75H171.719V76ZM179.755 76V77H183.772V76V75H179.755V76ZM187.79 76V77H191.808V76V75H187.79V76ZM195.825 76V77H199.843V76V75H195.825V76ZM203.861 76V77H207.878V76V75H203.861V76ZM211.896 76V77H215.914V76V75H211.896V76ZM219.931 76V77H223.949V76V75H219.931V76ZM227.967 76V77H231.984V76V75H227.967V76ZM236.002 76V77H240.02V76V75H236.002V76ZM244.037 76V77H248.055V76V75H244.037V76ZM252.073 76V77H256.09V76V75H252.073V76ZM260.108 76V77H264.126V76V75H260.108V76ZM268.143 76V77H272.161V76V75H268.143V76ZM276.179 76V77H280.196V76V75H276.179V76ZM284.214 76V77H288.232V76V75H284.214V76ZM292.249 76V77H296.267V76V75H292.249V76ZM300.285 76V77H304.302V76V75H300.285V76ZM308.32 76V77H312.338V76V75H308.32V76ZM316.355 76V77H320.373V76V75H316.355V76ZM324.391 76V77H328.408V76V75H324.391V76ZM332.426 76V77H336.444V76V75H332.426V76ZM340.461 76V77H344.479V76V75H340.461V76ZM348.497 76V77H352.514V76V75H348.497V76ZM356.532 76V77H360.55V76V75H356.532V76ZM364.567 76V77H368.585V76V75H364.567V76ZM372.603 76V77H376.62V76V75H372.603V76ZM380.638 76V77H384.656V76V75H380.638V76ZM388.673 76V77H392.691V76V75H388.673V76ZM396.709 76V77H400.726V76V75H396.709V76ZM404.744 76V77H408.762V76V75H404.744V76ZM412.779 76V77H416.797V76V75H412.779V76ZM420.815 76V77H424.832V76V75H420.815V76ZM428.85 76V77H432.868V76V75H428.85V76ZM436.885 76V77H440.903V76V75H436.885V76ZM444.921 76V77H448.938V76V75H444.921V76ZM452.956 76V77H456.974V76V75H452.956V76ZM460.991 76V77H463V76V75H460.991V76ZM463 76V77C463.667 77 464.319 76.9346 464.951 76.8097L464.756 75.8287L464.562 74.8477C464.058 74.9475 463.536 75 463 75V76ZM468.001 74.4841L468.557 75.3151C469.647 74.5853 470.585 73.6469 471.315 72.5569L470.484 72.0005L469.653 71.4442C469.069 72.3171 468.317 73.0688 467.444 73.6531L468.001 74.4841ZM471.829 68.7565L472.81 68.9505C472.935 68.3189 473 67.6666 473 67H472H471C471 67.5356 470.948 68.0579 470.848 68.5624L471.829 68.7565ZM472 67H473V64.9643H472H471V67H472ZM472 60.8929H473V56.8214H472H471V60.8929H472ZM472 52.75H473V48.6786H472H471V52.75H472ZM472 44.6071H473V40.5357H472H471V44.6071H472ZM472 36.4643H473V32.3929H472H471V36.4643H472ZM472 28.3214H473V24.25H472H471V28.3214H472ZM472 20.1786H473V16.1071H472H471V20.1786H472ZM472 12.0357H473V10H472H471V12.0357H472ZM472 10H473C473 9.33343 472.935 8.68113 472.81 8.04947L471.829 8.24354L470.848 8.43761C470.948 8.94212 471 9.46444 471 10H472ZM470.484 4.99946L471.315 4.44314C470.585 3.35306 469.647 2.41473 468.557 1.68494L468.001 2.51591L467.444 3.34688C468.317 3.93123 469.069 4.68294 469.653 5.55578L470.484 4.99946ZM464.756 1.17131L464.951 0.190319C464.319 0.0653584 463.667 0 463 0V1V2C463.536 2 464.058 2.05249 464.562 2.15229L464.756 1.17131Z" fill="#C8C8C8"/>
</svg>
