<svg width="55" height="31" viewBox="0 0 55 31" fill="none" xmlns="http://www.w3.org/2000/svg">
<path d="M2 18.8953C6.43798 12.978 19.3969 1.32094 35.7286 2.03102C41.0542 2.03096 51.8829 5.40374 52.593 18.8953C52.8862 20.9478 51.901 24.3368 45.664 21.6337C45.8021 23.0311 45.7656 24.4929 45.4922 25.9963C44.9005 27.4756 42.6519 29.5467 38.3914 25.9963C37.208 21.8542 33.7759 13.0374 29.5155 10.9072C32.77 14.1617 38.569 21.9134 35.7286 26.8839C34.841 28.3633 32.0007 30.0794 27.7403 25.1087C26.8527 22.15 24.3674 15.7002 21.5271 13.57C24.1899 16.8245 28.8054 24.0436 25.9651 26.8839C25.0775 27.7715 22.5922 29.0141 19.7519 26.8839C19.7519 24.2211 18.5093 18.718 13.5387 18.0079L2 18.8953Z" fill="#FEE3D3" stroke="#030303" stroke-width="3.5777" stroke-linejoin="round"/>
</svg>
